<svg width="710" height="468" viewBox="0 0 710 468" fill="none" xmlns="http://www.w3.org/2000/svg">
<g id="main 1" clip-path="url(#clip0)">
<g id="2rightHand">
<path id="Vector" d="M527.818 217.146L524.998 226.912C524.998 226.912 522.464 226.424 518.663 225.588C505.788 222.734 478.633 215.881 489.518 210.852C498.901 206.511 512.72 210.732 520.924 214.026C523.928 215.236 526.183 216.321 527.191 216.831C527.615 217.037 527.818 217.146 527.818 217.146Z" fill="#F8B9BF"/>
<path id="Vector_2" d="M534.869 229.015L527 227.349L529.446 215L535.737 216.329L534.869 229.015Z" fill="#D9DFE8"/>
<path id="Vector_3" d="M607.412 179.262C607.412 179.262 592.301 171.785 585.585 193.234C578.869 214.682 578.236 224.563 578.236 224.563L530.514 216.392L529 231.318C529 231.318 580.022 245.426 586.441 244.4C592.859 243.375 613.685 213.472 613.685 213.472C613.685 213.472 632.616 190.298 607.412 179.262Z" fill="#6C63FF"/>
</g>
<g id="2leftHand">
<path id="Vector_4" d="M538.994 228.661L537.911 238.699C537.911 238.699 535.307 238.542 531.436 238.194C518.213 237.017 490.164 233.707 500.08 227.343C508.608 221.873 523.003 224.261 531.689 226.474C534.857 227.288 537.29 228.075 538.373 228.449C538.773 228.58 538.994 228.661 538.994 228.661Z" fill="#F8B9BF"/>
<path id="Vector_5" d="M546.072 239.163L538 238.523L538.266 226L544.722 226.51L546.072 239.163Z" fill="#D9DFE8"/>
<path id="Vector_6" d="M612.586 178.599C612.586 178.599 596.36 173.135 593.433 195.203C590.506 217.27 591.615 227.118 591.615 227.118L543 225.127L544.096 240.081C544.096 240.081 597.007 247.52 603.171 245.686C609.336 243.852 624.751 211.616 624.751 211.616C624.751 211.616 639.406 186.293 612.586 178.599Z" fill="#6C63FF"/>
</g>
<g id="1rightHand">
<path id="Vector_7" d="M214 219.05L216.313 228.936C216.313 228.936 218.885 228.54 222.693 227.851C235.7 225.491 263.185 219.663 252.541 214.226C243.386 209.555 229.364 213.228 221.001 216.212C217.935 217.298 215.628 218.307 214.596 218.779C214.209 218.947 214 219.05 214 219.05Z" fill="#F8B9BF"/>
<path id="Vector_8" d="M137.985 177.044C137.985 177.044 153.45 170.142 159.07 191.83C164.69 213.517 164.772 223.403 164.772 223.403L212.874 217.039L213.622 232.009C213.622 232.009 161.921 244.179 155.567 242.91C149.212 241.64 129.919 210.978 129.919 210.978C129.919 210.978 112.242 187.131 137.985 177.044Z" fill="#6C63FF"/>
</g>
<g id="working">
<path id="Vector_9" opacity="0.1" d="M665.261 264.928C639.101 298.629 645.722 345.471 658.894 382.574C663.329 394.994 668.341 408.119 665.363 421.847C661.72 438.635 646.868 451.565 631.643 458.803C603.899 472.004 571.694 470.919 547.801 455.987C527.153 443.079 513.119 421.055 492.046 408.781C456.825 388.314 409.794 399.264 369.181 416.855C340.448 429.286 308.902 445.14 281.671 435.195C262.511 428.195 250.093 409.345 243.922 388.993C240.944 379.166 238.993 368.461 232.644 360.881C228.843 356.377 223.774 353.284 218.522 350.772C170.553 327.582 107.264 344.722 60.8544 318.645C29.5364 301.065 10.9027 265.72 3.94596 228.2C-3.01078 190.679 0.416903 150.771 5.06741 111.498C8.36837 83.5923 13.1012 53.7387 31.2788 31.3674C50.508 7.7048 81.6993 -2.37121 109.21 0.466564C136.72 3.30434 160.91 17.3576 181.964 34.3246C208.277 55.4858 232.251 82.3226 265.66 89.6694C288.412 94.6884 312.932 89.9787 336.843 87.499C376.822 83.4024 416.44 85.6813 455.792 88.3888C493.472 90.9825 531.391 94.0264 566.777 105.085C591.816 112.909 611.343 128.492 634.818 138.856C650.119 145.611 667.162 146.794 681.5 155.676C699.164 166.61 714.776 186.436 708.637 210.934C702.801 234.26 679.143 247.022 665.261 264.928Z" fill="#6C63FF"/>
<path id="Vector_10" opacity="0.1" d="M583.968 139.133H558.06V172.719H583.968V139.133Z" fill="#6C63FF"/>
<path id="Vector_11" opacity="0.1" d="M581.446 142.399H560.576V169.453H581.446V142.399Z" fill="#6C63FF"/>
<path id="Vector_12" opacity="0.1" d="M545.262 115.801H505.473V149.388H545.262V115.801Z" fill="#6C63FF"/>
<path id="Vector_13" opacity="0.1" d="M541.391 119.067H509.338V146.121H541.391V119.067Z" fill="#6C63FF"/>
<path id="Vector_14" opacity="0.1" d="M162.559 65.8277H40.9422V68.6004H162.559V65.8277Z" fill="#6C63FF"/>
<path id="Vector_15" opacity="0.1" d="M162.559 79.3872H40.9422V82.1599H162.559V79.3872Z" fill="#6C63FF"/>
<path id="Vector_16" d="M258.527 245.595H246.103V364.5H258.527V245.595Z" fill="#D6D6E3"/>
<path id="Vector_17" d="M621.444 258.08V148.4C621.446 145.343 622.865 142.412 625.39 140.25C627.914 138.089 631.338 136.875 634.908 136.875V136.875C638.473 136.881 641.89 138.098 644.409 140.258C646.929 142.419 648.344 145.347 648.346 148.4V281.141C648.346 284.199 646.928 287.131 644.403 289.294C641.878 291.456 638.453 292.671 634.882 292.671H551.496C547.926 292.671 544.501 291.456 541.976 289.294C539.451 287.131 538.033 284.199 538.033 281.141V281.141C538.033 278.083 539.451 275.15 541.976 272.988C544.501 270.825 547.926 269.611 551.496 269.611H607.98C611.551 269.611 614.976 268.396 617.501 266.233C620.026 264.071 621.444 261.138 621.444 258.08V258.08Z" fill="#AEBEE1"/>
<path id="Vector_18" d="M621.444 258.08V148.4C621.446 145.343 622.865 142.412 625.39 140.25C627.914 138.089 631.338 136.875 634.908 136.875V136.875C638.473 136.881 641.89 138.098 644.409 140.258C646.929 142.419 648.344 145.347 648.346 148.4V281.141C648.346 284.199 646.928 287.131 644.403 289.294C641.878 291.456 638.453 292.671 634.882 292.671H551.496C547.926 292.671 544.501 291.456 541.976 289.294C539.451 287.131 538.033 284.199 538.033 281.141V281.141C538.033 278.083 539.451 275.15 541.976 272.988C544.501 270.825 547.926 269.611 551.496 269.611H607.98C611.551 269.611 614.976 268.396 617.501 266.233C620.026 264.071 621.444 261.138 621.444 258.08V258.08Z" fill="#535461"/>
<path id="Vector_19" d="M538.052 280.522C538.237 277.575 539.734 274.802 542.235 272.772C544.736 270.742 548.051 269.611 551.496 269.611H607.98C611.551 269.611 614.976 268.396 617.501 266.233C620.026 264.071 621.444 261.138 621.444 258.08V148.4C621.442 145.436 622.772 142.586 625.159 140.44C627.545 138.294 630.805 137.018 634.261 136.875V280.522H538.052Z" fill="#D6D6E3"/>
<path id="Vector_20" d="M121.965 261.781V152.101C121.965 149.047 120.551 146.119 118.033 143.957C115.515 141.796 112.098 140.578 108.533 140.57V140.57C104.962 140.57 101.538 141.785 99.0126 143.947C96.4877 146.11 95.0692 149.043 95.0692 152.101V284.841C95.065 286.358 95.4102 287.86 96.085 289.262C96.7597 290.664 97.7508 291.938 99.0014 293.012C100.252 294.085 101.738 294.937 103.373 295.518C105.009 296.099 106.762 296.399 108.533 296.399H191.912C195.483 296.399 198.908 295.184 201.433 293.021C203.958 290.859 205.376 287.926 205.376 284.868V284.868C205.376 281.81 203.958 278.878 201.433 276.715C198.908 274.553 195.483 273.338 191.912 273.338H135.435C133.664 273.339 131.91 273.04 130.273 272.46C128.637 271.879 127.151 271.027 125.899 269.953C124.648 268.88 123.656 267.605 122.981 266.203C122.306 264.801 121.961 263.298 121.965 261.781V261.781Z" fill="#AEBEE1"/>
<path id="Vector_21" d="M121.965 261.781V152.101C121.965 149.047 120.551 146.119 118.033 143.957C115.515 141.796 112.098 140.578 108.533 140.57V140.57C104.962 140.57 101.538 141.785 99.0126 143.947C96.4877 146.11 95.0692 149.043 95.0692 152.101V284.841C95.065 286.358 95.4102 287.86 96.085 289.262C96.7597 290.664 97.7508 291.938 99.0014 293.012C100.252 294.085 101.738 294.937 103.373 295.518C105.009 296.099 106.762 296.399 108.533 296.399H191.912C195.483 296.399 198.908 295.184 201.433 293.021C203.958 290.859 205.376 287.926 205.376 284.868V284.868C205.376 281.81 203.958 278.878 201.433 276.715C198.908 274.553 195.483 273.338 191.912 273.338H135.435C133.664 273.339 131.91 273.04 130.273 272.46C128.637 271.879 127.151 271.027 125.899 269.953C124.648 268.88 123.656 267.605 122.981 266.203C122.306 264.801 121.961 263.298 121.965 261.781V261.781Z" fill="#535461"/>
<path id="Vector_22" d="M205.357 284.223C205.172 281.276 203.675 278.502 201.174 276.472C198.673 274.442 195.358 273.311 191.912 273.311H135.435C133.666 273.312 131.915 273.014 130.281 272.435C128.646 271.856 127.161 271.007 125.91 269.936C124.66 268.865 123.667 267.594 122.99 266.195C122.313 264.795 121.965 263.296 121.965 261.781V152.101C121.964 149.142 120.635 146.296 118.253 144.153C115.871 142.01 112.617 140.733 109.166 140.587V284.223H205.357Z" fill="#D6D6E3"/>
<path id="Vector_23" d="M504.339 245.595H491.914V367.272H504.339V245.595Z" fill="#D6D6E3"/>
<path id="Vector_24" opacity="0.1" d="M258.527 245.595H246.103V254.385H258.527V245.595Z" fill="black"/>
<path id="Vector_25" opacity="0.1" d="M504.339 245.595H491.914V254.385H504.339V245.595Z" fill="black"/>
<path id="Vector_26" opacity="0.1" d="M290.479 173.186C290.281 175.06 290.029 176.959 289.725 178.883H287.97V173.186H290.479Z" fill="black"/>
<path id="Vector_27" d="M341.387 232.372C341.425 234.298 339.803 235.877 337.795 235.877H299.875V232.492H331.428C332.79 232.492 333.639 231.081 332.954 229.952L304.342 180.115C304.139 179.756 303.825 179.451 303.434 179.235C303.043 179.019 302.59 178.899 302.124 178.888H287.97V173.191H305.843C306.169 173.198 306.486 173.282 306.76 173.433C307.034 173.584 307.254 173.797 307.396 174.049L340.196 228.308C340.952 229.567 341.36 230.957 341.387 232.372Z" fill="#535461"/>
<path id="Vector_28" d="M271.744 223.333L271.224 224.081L266.365 221.303L281.4 122.296H285.271C285.271 122.296 285.429 122.752 285.689 123.62C288.28 132.176 301.009 180.636 271.744 223.333Z" fill="#535461"/>
<path id="Vector_29" opacity="0.1" d="M285.683 123.62L271.744 223.333L271.224 224.081L266.365 221.303L281.4 122.296H285.271C285.271 122.296 285.423 122.768 285.683 123.62Z" fill="black"/>
<path id="Vector_30" d="M276.231 121.271L261.968 223.25L271.09 224.186L285.352 122.207L276.231 121.271Z" fill="#D6D6E3"/>
<path id="Vector_31" d="M230.707 232.41C230.705 232.656 230.59 232.891 230.388 233.065C230.185 233.238 229.91 233.337 229.623 233.338H228.001C227.714 233.338 227.438 233.24 227.235 233.066C227.032 232.892 226.918 232.656 226.918 232.41C226.913 232.374 226.913 232.338 226.918 232.302C226.95 232.078 227.077 231.871 227.274 231.722C227.471 231.572 227.725 231.489 227.989 231.488H229.611C229.851 231.49 230.085 231.56 230.274 231.688C230.463 231.816 230.597 231.993 230.656 232.193C230.684 232.263 230.701 232.336 230.707 232.41V232.41Z" fill="#E3EDF9"/>
<path id="Vector_32" d="M235.566 232.41C235.565 232.656 235.45 232.891 235.247 233.065C235.044 233.238 234.77 233.337 234.483 233.338H232.861C232.574 233.338 232.298 233.24 232.095 233.066C231.892 232.892 231.778 232.656 231.778 232.41C231.778 232.324 231.793 232.238 231.822 232.155C231.87 232.005 231.964 231.868 232.094 231.759C232.193 231.673 232.312 231.604 232.442 231.557C232.573 231.511 232.713 231.487 232.855 231.488H234.477C234.686 231.487 234.891 231.538 235.067 231.634C235.243 231.73 235.384 231.868 235.471 232.03C235.533 232.15 235.565 232.279 235.566 232.41Z" fill="#E3EDF9"/>
<path id="Vector_33" d="M239.887 232.41C239.886 232.656 239.771 232.891 239.568 233.065C239.365 233.238 239.091 233.337 238.804 233.338H237.182C236.895 233.338 236.619 233.24 236.416 233.066C236.213 232.892 236.099 232.656 236.099 232.41C236.096 232.277 236.128 232.146 236.194 232.025C236.281 231.865 236.42 231.729 236.594 231.633C236.767 231.537 236.969 231.485 237.176 231.482H238.798C238.94 231.482 239.081 231.505 239.213 231.551C239.345 231.598 239.465 231.666 239.566 231.752C239.666 231.839 239.746 231.941 239.8 232.054C239.854 232.167 239.882 232.288 239.881 232.41H239.887Z" fill="#E3EDF9"/>
<path id="Vector_34" d="M244.753 232.41C244.752 232.656 244.637 232.891 244.434 233.065C244.231 233.238 243.957 233.337 243.67 233.338H242.048C241.85 233.338 241.656 233.291 241.486 233.203C241.317 233.115 241.179 232.989 241.088 232.839C240.996 232.688 240.955 232.519 240.968 232.35C240.981 232.18 241.047 232.017 241.161 231.878L241.288 231.759C241.387 231.673 241.505 231.604 241.636 231.557C241.766 231.511 241.906 231.487 242.048 231.488H243.67C243.818 231.489 243.963 231.517 244.099 231.568C244.234 231.619 244.355 231.693 244.456 231.786C244.646 231.953 244.753 232.177 244.753 232.41V232.41Z" fill="#E3EDF9"/>
<path id="Vector_35" opacity="0.1" d="M230.675 232.188C230.697 232.26 230.708 232.335 230.707 232.41C230.705 232.656 230.59 232.891 230.388 233.065C230.185 233.238 229.91 233.337 229.623 233.338H228.001C227.714 233.338 227.438 233.24 227.235 233.066C227.032 232.892 226.918 232.656 226.918 232.41C226.913 232.374 226.913 232.338 226.918 232.302L230.675 232.188Z" fill="black"/>
<path id="Vector_36" opacity="0.1" d="M235.478 232.041C235.535 232.156 235.565 232.28 235.566 232.405C235.565 232.65 235.45 232.886 235.247 233.059C235.044 233.233 234.77 233.331 234.483 233.333H232.861C232.574 233.333 232.298 233.235 232.095 233.061C231.892 232.887 231.778 232.651 231.778 232.405C231.778 232.318 231.793 232.233 231.822 232.15L235.478 232.041Z" fill="black"/>
<path id="Vector_37" opacity="0.1" d="M239.729 226.916C239.836 227.063 239.893 227.232 239.894 227.405C239.892 227.65 239.777 227.886 239.575 228.059C239.372 228.233 239.097 228.331 238.81 228.333H237.188C236.901 228.333 236.625 228.235 236.422 228.061C236.219 227.887 236.105 227.651 236.105 227.405C236.102 227.272 236.135 227.14 236.2 227.02L239.729 226.916Z" fill="black"/>
<path id="Vector_38" opacity="0.1" d="M244.753 232.41C244.752 232.656 244.637 232.891 244.434 233.065C244.231 233.238 243.957 233.337 243.67 233.338H242.048C241.85 233.338 241.656 233.291 241.486 233.203C241.317 233.115 241.179 232.989 241.088 232.839C240.996 232.688 240.955 232.519 240.968 232.35C240.981 232.18 241.047 232.017 241.161 231.878L244.456 231.781C244.647 231.949 244.754 232.175 244.753 232.41Z" fill="black"/>
<path id="Vector_39" d="M254.472 236.111H223.142V234.89C223.141 234.348 223.387 233.827 223.827 233.437C224.267 233.047 224.866 232.819 225.499 232.801L250.627 232.058C251.126 232.043 251.623 232.115 252.09 232.268C252.556 232.421 252.982 232.654 253.341 232.951C253.7 233.248 253.986 233.604 254.182 233.998C254.377 234.391 254.478 234.815 254.479 235.243L254.472 236.111Z" fill="#D6D6E3"/>
<path id="Vector_40" d="M409.048 232.372C409.01 234.298 410.632 235.877 412.64 235.877H450.579V232.492H418.989C417.627 232.492 416.778 231.081 417.462 229.952L446.074 180.115C446.277 179.756 446.591 179.451 446.982 179.235C447.373 179.019 447.826 178.899 448.292 178.888H462.453V173.191H444.592C444.271 173.202 443.96 173.286 443.691 173.436C443.422 173.586 443.206 173.796 443.065 174.043L410.264 228.303C409.499 229.561 409.082 230.954 409.048 232.372V232.372Z" fill="#535461"/>
<path id="Vector_41" d="M478.698 223.333L479.217 224.081L484.077 221.303L469.042 122.296H465.171C465.171 122.296 465.012 122.752 464.752 123.62C462.155 132.176 449.401 180.636 478.698 223.333Z" fill="#535461"/>
<path id="Vector_42" opacity="0.1" d="M464.753 123.62L478.691 223.333L479.211 224.081L484.07 221.303L469.042 122.296H465.171C465.171 122.296 465.012 122.768 464.753 123.62Z" fill="black"/>
<path id="Vector_43" d="M474.216 121.261L465.095 122.197L479.357 224.176L488.479 223.24L474.216 121.261Z" fill="#D6D6E3"/>
<path id="Vector_44" d="M519.729 232.41C519.73 232.656 519.845 232.891 520.048 233.065C520.25 233.238 520.525 233.337 520.812 233.338H522.434C522.721 233.338 522.997 233.24 523.2 233.066C523.403 232.892 523.517 232.656 523.517 232.41C523.522 232.374 523.522 232.338 523.517 232.302C523.485 232.078 523.358 231.871 523.161 231.722C522.964 231.572 522.71 231.489 522.447 231.488H520.825C520.584 231.49 520.351 231.56 520.162 231.688C519.972 231.816 519.838 231.993 519.779 232.193C519.751 232.263 519.734 232.336 519.729 232.41V232.41Z" fill="#E3EDF9"/>
<path id="Vector_45" d="M514.869 232.41C514.871 232.656 514.985 232.891 515.188 233.065C515.391 233.238 515.665 233.337 515.952 233.338H517.574C517.717 233.338 517.857 233.314 517.989 233.267C518.12 233.221 518.24 233.152 518.34 233.066C518.441 232.98 518.521 232.878 518.575 232.765C518.63 232.653 518.658 232.532 518.658 232.41C518.657 232.324 518.642 232.238 518.613 232.155C518.565 232.005 518.471 231.868 518.341 231.759C518.242 231.673 518.123 231.604 517.993 231.557C517.862 231.511 517.722 231.487 517.581 231.488H515.927C515.718 231.487 515.513 231.538 515.337 231.634C515.16 231.73 515.02 231.868 514.932 232.03C514.881 232.152 514.86 232.281 514.869 232.41Z" fill="#E3EDF9"/>
<path id="Vector_46" d="M510.548 232.41C510.55 232.656 510.664 232.891 510.867 233.065C511.07 233.238 511.344 233.337 511.631 233.338H513.253C513.541 233.338 513.816 233.24 514.019 233.066C514.223 232.892 514.337 232.656 514.337 232.41C514.339 232.277 514.307 232.146 514.242 232.025C514.154 231.865 514.015 231.729 513.842 231.633C513.668 231.537 513.466 231.485 513.26 231.482H511.638C511.495 231.482 511.354 231.505 511.222 231.551C511.09 231.598 510.97 231.666 510.87 231.752C510.769 231.839 510.689 231.941 510.635 232.054C510.581 232.167 510.553 232.288 510.554 232.41H510.548Z" fill="#E3EDF9"/>
<path id="Vector_47" d="M505.682 232.41C505.684 232.656 505.798 232.891 506.001 233.065C506.204 233.238 506.479 233.337 506.765 233.338H508.387C508.586 233.338 508.78 233.291 508.949 233.203C509.118 233.115 509.256 232.989 509.348 232.839C509.439 232.688 509.481 232.519 509.468 232.35C509.455 232.18 509.388 232.017 509.274 231.878L509.148 231.759C509.049 231.673 508.93 231.604 508.8 231.557C508.669 231.511 508.529 231.487 508.387 231.488H506.765C506.618 231.489 506.472 231.517 506.337 231.568C506.202 231.619 506.08 231.693 505.98 231.786C505.789 231.953 505.683 232.177 505.682 232.41Z" fill="#E3EDF9"/>
<path id="Vector_48" opacity="0.1" d="M519.76 232.188C519.738 232.26 519.728 232.335 519.729 232.41C519.73 232.656 519.845 232.891 520.048 233.065C520.25 233.238 520.525 233.337 520.812 233.338H522.434C522.721 233.338 522.997 233.24 523.2 233.066C523.403 232.892 523.517 232.656 523.517 232.41C523.522 232.374 523.522 232.338 523.517 232.302L519.76 232.188Z" fill="black"/>
<path id="Vector_49" opacity="0.1" d="M514.958 232.041C514.901 232.156 514.87 232.28 514.869 232.405C514.871 232.65 514.985 232.886 515.188 233.059C515.391 233.233 515.666 233.331 515.952 233.333H517.574C517.717 233.333 517.857 233.309 517.989 233.262C518.12 233.215 518.24 233.147 518.34 233.061C518.441 232.975 518.521 232.872 518.575 232.76C518.63 232.647 518.658 232.527 518.658 232.405C518.657 232.318 518.642 232.233 518.613 232.15L514.958 232.041Z" fill="black"/>
<path id="Vector_50" opacity="0.1" d="M510.706 231.916C510.6 232.063 510.543 232.232 510.542 232.405C510.543 232.65 510.658 232.886 510.861 233.059C511.064 233.233 511.338 233.331 511.625 233.333H513.247C513.534 233.333 513.81 233.235 514.013 233.061C514.216 232.887 514.33 232.651 514.33 232.405C514.333 232.272 514.301 232.14 514.235 232.02L510.706 231.916Z" fill="black"/>
<path id="Vector_51" opacity="0.1" d="M505.682 232.41C505.684 232.656 505.798 232.891 506.001 233.065C506.204 233.238 506.479 233.337 506.765 233.338H508.387C508.586 233.338 508.78 233.291 508.949 233.203C509.118 233.115 509.256 232.989 509.348 232.839C509.439 232.688 509.481 232.519 509.468 232.35C509.455 232.18 509.388 232.017 509.274 231.878L505.98 231.781C505.788 231.949 505.681 232.175 505.682 232.41Z" fill="black"/>
<path id="Vector_52" d="M495.963 236.111H527.294V234.89C527.294 234.348 527.048 233.827 526.608 233.437C526.169 233.047 525.569 232.819 524.937 232.801L499.809 232.058C499.309 232.043 498.812 232.115 498.346 232.268C497.879 232.421 497.454 232.654 497.094 232.951C496.735 233.248 496.449 233.604 496.254 233.998C496.058 234.391 495.957 234.815 495.956 235.243L495.963 236.111Z" fill="#D6D6E3"/>
<path id="Vector_53" d="M627.102 250.82C641.719 229.589 636.422 186.762 637.011 185.942C637.537 185.221 635.522 165.052 622.09 160.126C619.664 156.007 617.275 151.368 617.275 151.368C617.04 151.557 616.781 151.723 616.502 151.862C616.396 151.616 616.293 151.366 616.192 151.113C616.021 150.684 615.862 150.245 615.704 149.805C616.08 149.908 616.463 149.992 616.851 150.055C617.875 150.269 618.953 150.187 619.917 149.822C620.246 149.671 620.543 149.474 620.798 149.241C621.856 148.639 622.439 147.554 622.933 146.528L626.842 138.509C628.604 134.889 630.378 131.249 631.315 127.412C632.711 121.64 632.17 115.646 629.757 110.125C628.832 108.02 627.552 105.915 625.379 104.656C621.026 102.127 614.969 103.875 609.995 102.393C608.361 101.905 606.884 101.08 605.25 100.581C601.721 99.4958 597.735 100.076 594.339 101.427C590.943 102.779 588.194 104.927 585.222 106.853C583.758 107.814 581.421 108.807 579.697 110.109C578.025 111.227 576.738 112.578 576.985 114.358C577.264 116.392 579.767 117.613 582.099 118.091C582.485 118.167 582.884 118.226 583.277 118.286C580.51 120.687 578.516 123.661 577.489 126.917C576.462 130.174 576.438 133.603 577.419 136.871C578.399 140.138 580.351 143.132 583.084 145.562C585.818 147.991 589.239 149.773 593.015 150.733C594.204 152.645 595.233 154.627 596.094 156.664C596.208 156.942 596.32 157.223 596.43 157.505C592.591 158.438 589.587 159.214 588.986 159.643C587.167 160.934 590.975 172.242 590.975 172.242C590.006 173.294 589.017 174.493 588.016 175.779C580.425 185.654 575.618 196.906 573.976 208.644C573.342 212.936 572.519 217.326 571.473 221.499L526.064 213.701L525.969 214.662L524.886 214.434L521.477 213.712L521.344 214.369L520.825 214.157C512.379 210.766 498.149 206.436 488.512 210.902C478.343 215.59 500.29 221.819 514.375 225.134C509.705 225.329 505.238 226.29 501.703 228.536C491.49 235.091 520.375 238.504 534.016 239.714L534.567 239.762V240.012L539.294 240.386L540.402 240.473L540.51 241.916C540.51 241.916 547.277 242.866 556.318 244.016C545.997 246.225 533.243 247.755 524.385 248.65C514.996 249.594 507 255.194 504.478 263.002C503.663 265.241 503.584 267.629 504.25 269.904C506.886 277.787 503.667 335.786 502.939 348.276L486.244 356.507C486.244 356.507 460.267 359.22 477.57 364.435C479.129 364.891 480.723 365.253 482.341 365.52C480.06 366.779 480.256 368.423 486.979 370.441C504.294 375.639 544.546 370.213 544.546 370.213C544.546 370.213 543.665 364.104 542.233 359.025L542.677 359.058C542.677 359.058 538.521 345.813 544.825 339.133C551.129 332.454 543.767 281.618 543.767 281.618C543.767 281.618 554.804 277.706 587.794 277.451C614.405 283.3 627.374 262.361 627.191 251.537C627.134 251.293 627.121 251.043 627.102 250.82Z" fill="url(#paint0_linear)"/>
<path id="Vector_54" d="M507.786 343.442L488.303 353.051C488.303 353.051 463.061 355.699 479.876 360.745C496.691 365.791 535.784 360.523 535.784 360.523C535.784 360.523 533.61 345.482 530.582 343.382C527.553 341.282 507.786 343.442 507.786 343.442Z" fill="#68739D"/>
<path id="Vector_55" d="M583.721 235.628C583.721 235.628 574.027 239.969 556.806 243.718C546.713 245.888 534.079 247.429 525.348 248.308C520.879 248.725 516.655 250.269 513.212 252.745C509.769 255.221 507.263 258.517 506.011 262.215C505.214 264.397 505.137 266.726 505.79 268.943C508.66 277.532 504.377 347.354 504.377 347.354L533.965 349.698C533.965 349.698 529.929 336.833 536.056 330.349C542.183 323.865 535.03 274.51 535.03 274.51C535.03 274.51 545.75 270.712 577.784 270.462C607.461 276.974 619.689 249.155 615.108 241.358C610.527 233.56 583.721 235.628 583.721 235.628Z" fill="#6394E2"/>
<g id="Group" opacity="0.1">
<path id="Vector_56" opacity="0.1" d="M507.786 343.442L488.303 353.051C488.303 353.051 463.061 355.699 479.876 360.745C496.691 365.791 535.784 360.523 535.784 360.523C535.784 360.523 533.61 345.482 530.582 343.382C527.553 341.282 507.786 343.442 507.786 343.442Z" fill="black"/>
<path id="Vector_57" opacity="0.1" d="M583.721 235.628C583.721 235.628 574.027 239.969 556.806 243.718C546.713 245.888 534.079 247.429 525.348 248.308C520.879 248.725 516.655 250.269 513.212 252.745C509.769 255.221 507.263 258.517 506.011 262.215C505.214 264.397 505.137 266.726 505.79 268.943C508.66 277.532 504.377 347.354 504.377 347.354L533.965 349.698C533.965 349.698 529.929 336.833 536.056 330.349C542.183 323.865 535.03 274.51 535.03 274.51C535.03 274.51 545.75 270.712 577.784 270.462C607.461 276.974 619.689 249.155 615.108 241.358C610.527 233.56 583.721 235.628 583.721 235.628Z" fill="black"/>
</g>
<path id="Vector_58" d="M516.922 349.275L497.439 358.884C497.439 358.884 472.21 361.51 489.012 366.578C505.815 371.646 544.92 366.355 544.92 366.355C544.92 366.355 542.747 351.315 539.718 349.215C536.69 347.115 516.922 349.275 516.922 349.275Z" fill="#68739D"/>
<path id="Vector_59" d="M586.888 276.295C554.854 276.545 544.134 280.343 544.134 280.343C544.134 280.343 551.287 329.719 545.161 336.182C539.034 342.644 543.07 355.531 543.07 355.531L513.481 353.187C513.481 353.187 513.532 352.362 513.614 350.886C514.324 338.754 517.448 282.432 514.882 274.776C514.234 272.566 514.311 270.245 515.103 268.07C516.349 264.367 518.852 261.065 522.294 258.583C525.736 256.101 529.961 254.551 534.434 254.13C543.158 253.257 555.792 251.737 565.885 249.54L566.379 249.431C583.296 245.709 592.8 241.45 592.8 241.45C592.8 241.45 619.607 239.388 624.187 247.185C624.833 248.421 625.154 249.765 625.125 251.119C625.353 261.64 612.745 281.976 586.888 276.295Z" fill="#6394E2"/>
<path id="Vector_60" d="M620.963 164.461C620.963 164.461 616.996 167.12 612.149 170.039C606.834 171.07 600.662 171.922 596.215 172.475C597.805 168.134 596.848 163.251 595.055 158.97C593.105 154.496 590.428 150.281 587.104 146.447L613.917 139.279C611.814 143.842 612.764 149.046 614.551 153.571C616.128 157.423 618.283 161.084 620.963 164.461V164.461Z" fill="#F8B9BF"/>
<path id="Vector_61" opacity="0.1" d="M620.963 164.461C620.963 164.461 616.996 167.12 612.149 170.039C606.834 171.07 600.662 171.922 596.215 172.475C597.805 168.134 596.848 163.251 595.055 158.97C601.607 157.342 610.977 155.237 614.557 153.544C616.13 157.405 618.283 161.075 620.963 164.461V164.461Z" fill="black"/>
<path id="Vector_62" d="M615.602 153.815C615.602 153.815 620.088 162.535 622.914 166.474C625.74 170.413 590.082 174.07 590.082 174.07C590.082 174.07 586.382 163.094 588.149 161.835C589.917 160.576 612.618 156.365 615.602 153.815Z" fill="#D9DFE8"/>
<path id="Vector_63" opacity="0.1" d="M625.176 251.124C623.676 253.39 621.807 255.462 619.626 257.277C603.875 270.093 578.056 256.735 566.405 249.431C583.321 245.709 592.825 241.45 592.825 241.45C592.825 241.45 619.632 239.388 624.213 247.185C624.869 248.421 625.197 249.767 625.176 251.124Z" fill="black"/>
<path id="Vector_64" d="M619.727 256.36C601.822 270.924 570.941 251.64 562.616 245.959C561.266 245.036 560.512 244.467 560.512 244.467C563.801 241.83 566.69 236.241 568.977 229.404C571.109 222.863 572.649 216.191 573.583 209.448C575.177 198.046 579.845 187.118 587.218 177.527C588.187 176.279 589.119 175.112 590.088 174.092C596.848 166.729 608.208 162.052 608.208 162.052C632.183 156.051 635.408 186.507 634.768 187.386C634.128 188.265 640.54 239.426 619.727 256.36Z" fill="#6C63FF"/>
<path id="Vector_65" opacity="0.1" d="M610.578 147.608C609.868 144.309 613.892 144.352 615.336 141.249L588.523 148.416C590.384 150.556 592.045 152.819 593.49 155.183C594.881 155.536 596.31 155.772 597.754 155.888C604.147 156.409 606.143 151.021 610.578 147.608Z" fill="black"/>
<path id="Vector_66" d="M620.41 136.765C621.536 126.333 612.573 117.095 600.392 116.131C588.211 115.167 577.424 122.842 576.298 133.274C575.172 143.706 584.134 152.944 596.316 153.908C608.497 154.872 619.284 147.197 620.41 136.765Z" fill="#F8B9BF"/>
<path id="Vector_67" opacity="0.1" d="M576.498 117.884C576.77 119.859 579.203 121.064 581.465 121.509C583.727 121.954 586.179 121.976 588.162 123.012C591.33 124.683 592.185 128.395 591.786 131.585C591.564 133.386 591.247 135.595 592.971 136.642C593.512 136.926 594.116 137.111 594.745 137.185C596.542 137.496 598.388 137.551 600.206 137.347C601.271 137.228 602.367 137.022 603.374 137.277C605.034 137.689 606.016 139.187 606.339 140.635C606.663 142.084 606.485 143.593 606.745 145.052C607.107 146.88 608.107 148.57 609.614 149.901C611.12 151.232 613.062 152.141 615.184 152.507C616.179 152.715 617.226 152.635 618.162 152.28C619.366 151.737 619.98 150.581 620.5 149.501L624.302 141.71C626.012 138.199 627.736 134.656 628.648 130.934C630.003 125.328 629.478 119.508 627.134 114.146C626.234 112.106 624.992 110.06 622.882 108.834C618.656 106.376 612.745 108.074 607.942 106.664C606.352 106.191 604.92 105.388 603.336 104.906C599.909 103.858 596.037 104.412 592.736 105.73C589.435 107.049 586.768 109.127 583.866 111.021C581.351 112.697 576.022 114.472 576.498 117.884Z" fill="black"/>
<path id="Vector_68" d="M577.08 117.467C577.353 119.442 579.786 120.646 582.048 121.091C584.31 121.536 586.762 121.558 588.745 122.594C591.913 124.265 592.768 127.977 592.369 131.167C592.147 132.969 591.83 135.177 593.554 136.224C594.095 136.508 594.699 136.693 595.328 136.767C597.125 137.078 598.971 137.133 600.789 136.93C601.854 136.81 602.95 136.604 603.957 136.859C605.617 137.271 606.599 138.769 606.922 140.218C607.245 141.666 607.068 143.175 607.328 144.634C607.69 146.462 608.69 148.153 610.197 149.484C611.703 150.814 613.645 151.723 615.767 152.09C616.762 152.297 617.809 152.217 618.745 151.862C619.949 151.319 620.563 150.163 621.083 149.084L624.884 141.292C626.595 137.781 628.318 134.238 629.231 130.516C630.585 124.91 630.06 119.09 627.716 113.728C626.817 111.688 625.575 109.642 623.465 108.416C619.239 105.958 613.328 107.656 608.525 106.246C606.935 105.774 605.503 104.971 603.919 104.488C600.491 103.441 596.62 103.994 593.319 105.312C590.018 106.631 587.351 108.709 584.449 110.603C581.94 112.279 576.612 114.054 577.08 117.467Z" fill="#B96B6B"/>
<path id="Vector_69" opacity="0.1" d="M595.429 192.405C595.429 192.405 586.971 220.544 578.55 223.148C570.13 225.753 573.849 226.49 573.849 226.49" fill="black"/>
<path id="Vector_70" d="M595.828 295.487H586.635V347.234H595.828V295.487Z" fill="#D6D6E3"/>
<path id="Vector_71" opacity="0.1" d="M595.828 295.487H586.635V299.323H595.828V295.487Z" fill="black"/>
<path id="Vector_72" d="M568.242 295.216V296.301C568.242 296.635 568.319 296.966 568.468 297.275C568.618 297.583 568.836 297.864 569.112 298.1C569.388 298.337 569.716 298.524 570.076 298.652C570.437 298.78 570.823 298.846 571.214 298.846H611.243C611.634 298.846 612.02 298.78 612.38 298.652C612.741 298.524 613.069 298.337 613.345 298.1C613.62 297.864 613.839 297.583 613.989 297.275C614.138 296.966 614.215 296.635 614.215 296.301V295.216C614.215 294.882 614.138 294.551 613.989 294.242C613.839 293.933 613.62 293.653 613.345 293.416C613.069 293.18 612.741 292.992 612.38 292.865C612.02 292.737 611.634 292.671 611.243 292.671H571.214C570.823 292.671 570.437 292.737 570.076 292.865C569.716 292.992 569.388 293.18 569.112 293.416C568.836 293.653 568.618 293.933 568.468 294.242C568.319 294.551 568.242 294.882 568.242 295.216V295.216Z" fill="#D6D6E3"/>
<path id="Vector_73" opacity="0.1" d="M568.926 293.599H613.537C613.259 293.308 612.909 293.074 612.512 292.914C612.115 292.753 611.682 292.67 611.243 292.671H571.214C570.776 292.671 570.344 292.754 569.948 292.915C569.553 293.075 569.204 293.309 568.926 293.599V293.599Z" fill="black"/>
<path id="Vector_74" d="M625.518 344.418H556.958C555.033 344.418 553.473 345.754 553.473 347.403V347.62C553.473 349.268 555.033 350.604 556.958 350.604H625.518C627.442 350.604 629.003 349.268 629.003 347.62V347.403C629.003 345.754 627.442 344.418 625.518 344.418Z" fill="#D6D6E3"/>
<path id="Vector_75" d="M624.732 358.482C627.273 358.482 629.332 356.719 629.332 354.543C629.332 352.368 627.273 350.604 624.732 350.604C622.192 350.604 620.133 352.368 620.133 354.543C620.133 356.719 622.192 358.482 624.732 358.482Z" fill="#535461"/>
<path id="Vector_76" d="M557.737 358.482C560.278 358.482 562.337 356.719 562.337 354.543C562.337 352.368 560.278 350.604 557.737 350.604C555.197 350.604 553.137 352.368 553.137 354.543C553.137 356.719 555.197 358.482 557.737 358.482Z" fill="#535461"/>
<path id="Vector_77" d="M591.235 358.482C593.775 358.482 595.835 356.719 595.835 354.543C595.835 352.368 593.775 350.604 591.235 350.604C588.694 350.604 586.635 352.368 586.635 354.543C586.635 356.719 588.694 358.482 591.235 358.482Z" fill="#535461"/>
<path id="Vector_78" d="M648.327 231.927H586.85C583.876 231.927 581.465 233.992 581.465 236.539V236.876C581.465 239.423 583.876 241.488 586.85 241.488H648.327C651.301 241.488 653.712 239.423 653.712 236.876V236.539C653.712 233.992 651.301 231.927 648.327 231.927Z" fill="#D6D6E3"/>
<path id="Vector_79" opacity="0.1" d="M595.828 344.418C595.828 344.418 592.217 347.473 586.635 344.418Z" fill="black"/>
<path id="Vector_80" opacity="0.1" d="M653.712 236.805V237.559C653.712 238.603 653.229 239.603 652.367 240.341C651.506 241.079 650.337 241.493 649.119 241.493H586.058C584.84 241.493 583.672 241.079 582.81 240.341C581.949 239.603 581.465 238.603 581.465 237.559V236.805H653.712Z" fill="black"/>
<path id="Vector_81" d="M533.509 245.595H521.084V381.168H533.509V245.595Z" fill="#D6D6E3"/>
<path id="Vector_82" opacity="0.1" d="M533.509 245.595H521.084V254.385H533.509V245.595Z" fill="black"/>
<path id="Vector_83" d="M156.78 299.188H147.587V350.935H156.78V299.188Z" fill="#D6D6E3"/>
<path id="Vector_84" opacity="0.1" d="M156.78 299.188H147.587V303.024H156.78V299.188Z" fill="black"/>
<path id="Vector_85" d="M175.167 298.922V300.007C175.167 300.682 174.854 301.329 174.296 301.806C173.739 302.283 172.983 302.552 172.195 302.552H132.166C131.377 302.552 130.622 302.283 130.064 301.806C129.507 301.329 129.194 300.682 129.194 300.007V298.922C129.201 298.25 129.517 297.609 130.073 297.136C130.63 296.664 131.382 296.399 132.166 296.399H172.195C172.586 296.399 172.972 296.464 173.332 296.592C173.693 296.72 174.021 296.908 174.296 297.144C174.572 297.38 174.791 297.661 174.941 297.969C175.09 298.278 175.167 298.609 175.167 298.943V298.922Z" fill="#D6D6E3"/>
<path id="Vector_86" opacity="0.1" d="M174.489 297.299H129.872C130.153 297.014 130.504 296.785 130.901 296.629C131.298 296.473 131.729 296.395 132.166 296.399H172.195C172.632 296.395 173.063 296.473 173.46 296.629C173.856 296.785 174.208 297.014 174.489 297.299V297.299Z" fill="black"/>
<path id="Vector_87" d="M186.464 348.119H117.904C115.979 348.119 114.419 349.455 114.419 351.103V351.32C114.419 352.968 115.979 354.304 117.904 354.304H186.464C188.388 354.304 189.948 352.968 189.948 351.32V351.103C189.948 349.455 188.388 348.119 186.464 348.119Z" fill="#D6D6E3"/>
<path id="Vector_88" d="M118.689 362.183C121.23 362.183 123.289 360.419 123.289 358.244C123.289 356.068 121.23 354.304 118.689 354.304C116.149 354.304 114.089 356.068 114.089 358.244C114.089 360.419 116.149 362.183 118.689 362.183Z" fill="#535461"/>
<path id="Vector_89" d="M185.678 362.183C188.218 362.183 190.278 360.419 190.278 358.244C190.278 356.068 188.218 354.304 185.678 354.304C183.138 354.304 181.078 356.068 181.078 358.244C181.078 360.419 183.138 362.183 185.678 362.183Z" fill="#535461"/>
<path id="Vector_90" d="M152.18 362.183C154.721 362.183 156.78 360.419 156.78 358.244C156.78 356.068 154.721 354.304 152.18 354.304C149.64 354.304 147.581 356.068 147.581 358.244C147.581 360.419 149.64 362.183 152.18 362.183Z" fill="#535461"/>
<path id="Vector_91" opacity="0.1" d="M147.587 348.119C147.587 348.119 151.198 351.174 156.78 348.119Z" fill="black"/>
<path id="Vector_92" d="M382.121 192.339C382.121 192.339 371.806 176.284 375.576 162.328C377.2 156.484 376.566 150.345 373.77 144.835C372.427 142.229 370.809 139.733 368.936 137.38" stroke="#535461" stroke-width="2" stroke-miterlimit="10"/>
<path id="Vector_93" d="M371.223 128.568C371.761 130.673 368.879 137.613 368.879 137.613C368.879 137.613 362.866 132.35 362.321 130.245C362.139 129.73 362.083 129.189 362.156 128.655C362.23 128.121 362.431 127.606 362.749 127.141C363.066 126.677 363.491 126.274 363.999 125.958C364.507 125.641 365.085 125.418 365.698 125.302C366.312 125.186 366.946 125.18 367.562 125.284C368.178 125.389 368.762 125.601 369.278 125.907C369.794 126.214 370.23 126.609 370.559 127.066C370.889 127.524 371.104 128.036 371.191 128.568H371.223Z" fill="#6C63FF"/>
<path id="Vector_94" d="M381.569 138.839C380.689 140.858 373.865 145.351 373.865 145.351C373.865 145.351 372.154 138.134 373.041 136.127C373.231 135.627 373.537 135.165 373.941 134.769C374.345 134.373 374.838 134.05 375.39 133.822C375.943 133.593 376.544 133.462 377.157 133.437C377.77 133.412 378.383 133.494 378.958 133.677C379.534 133.859 380.06 134.14 380.506 134.502C380.952 134.863 381.307 135.298 381.552 135.78C381.796 136.263 381.924 136.782 381.928 137.308C381.933 137.834 381.813 138.355 381.576 138.839H381.569Z" fill="#6C63FF"/>
<path id="Vector_95" d="M386.359 158.818C384.408 160.18 375.873 161.097 375.873 161.097C375.873 161.097 378.655 154.13 380.606 152.768C381.069 152.439 381.604 152.192 382.179 152.041C382.754 151.89 383.359 151.839 383.957 151.889C384.556 151.939 385.137 152.09 385.667 152.334C386.197 152.578 386.666 152.909 387.046 153.308C387.426 153.708 387.709 154.167 387.88 154.661C388.052 155.155 388.107 155.673 388.043 156.185C387.979 156.698 387.798 157.194 387.509 157.646C387.22 158.098 386.829 158.496 386.359 158.818V158.818Z" fill="#6C63FF"/>
<path id="Vector_96" d="M386.011 174.629C384.357 176.257 376.127 178.395 376.127 178.395C376.127 178.395 377.489 171.124 379.143 169.502C379.529 169.098 380.007 168.764 380.547 168.522C381.087 168.279 381.679 168.131 382.286 168.088C382.894 168.044 383.506 168.106 384.086 168.269C384.665 168.432 385.201 168.693 385.66 169.036C386.12 169.379 386.494 169.798 386.761 170.268C387.028 170.738 387.182 171.249 387.214 171.77C387.246 172.292 387.156 172.814 386.948 173.305C386.74 173.796 386.419 174.246 386.004 174.629H386.011Z" fill="#6C63FF"/>
<path id="Vector_97" d="M364.627 147.505C366.769 148.639 375.367 148.59 375.367 148.59C375.367 148.59 371.565 141.987 369.424 140.853C368.915 140.566 368.345 140.37 367.746 140.276C367.148 140.181 366.533 140.19 365.939 140.303C365.344 140.415 364.782 140.628 364.286 140.93C363.79 141.231 363.369 141.615 363.048 142.058C362.728 142.501 362.514 142.994 362.42 143.509C362.326 144.024 362.353 144.55 362.501 145.056C362.648 145.562 362.912 146.037 363.277 146.454C363.642 146.871 364.101 147.221 364.627 147.483V147.505Z" fill="#6C63FF"/>
<path id="Vector_98" d="M364.501 166.007C366.94 166.55 375.132 164.314 375.132 164.314C375.132 164.314 369.195 158.986 366.756 158.454C365.606 158.245 364.406 158.424 363.406 158.955C362.407 159.487 361.686 160.328 361.395 161.304C361.104 162.279 361.264 163.314 361.843 164.19C362.422 165.067 363.374 165.718 364.501 166.007V166.007Z" fill="#6C63FF"/>
<path id="Vector_99" d="M367.244 184C369.538 184.879 378.059 183.87 378.059 183.87C378.059 183.87 373.257 177.76 370.963 176.881C369.86 176.459 368.606 176.429 367.477 176.798C366.348 177.168 365.437 177.906 364.944 178.851C364.451 179.795 364.416 180.869 364.847 181.836C365.279 182.802 366.141 183.583 367.244 184.005V184Z" fill="#6C63FF"/>
<path id="Vector_100" d="M371.223 128.568C371.761 130.673 368.879 137.613 368.879 137.613C368.879 137.613 362.866 132.35 362.321 130.245C362.139 129.73 362.083 129.189 362.156 128.655C362.23 128.121 362.431 127.606 362.749 127.141C363.066 126.677 363.491 126.274 363.999 125.958C364.507 125.641 365.085 125.418 365.698 125.302C366.312 125.186 366.946 125.18 367.562 125.284C368.178 125.389 368.762 125.601 369.278 125.907C369.794 126.214 370.23 126.609 370.559 127.066C370.889 127.524 371.104 128.036 371.191 128.568H371.223Z" fill="#6C63FF"/>
<path id="Vector_101" d="M381.569 138.839C380.689 140.858 373.865 145.351 373.865 145.351C373.865 145.351 372.154 138.134 373.041 136.127C373.231 135.627 373.537 135.165 373.941 134.769C374.345 134.373 374.838 134.05 375.39 133.822C375.943 133.593 376.544 133.462 377.157 133.437C377.77 133.412 378.383 133.494 378.958 133.677C379.534 133.859 380.06 134.14 380.506 134.502C380.952 134.863 381.307 135.298 381.552 135.78C381.796 136.263 381.924 136.782 381.928 137.308C381.933 137.834 381.813 138.355 381.576 138.839H381.569Z" fill="#6C63FF"/>
<path id="Vector_102" d="M386.359 158.818C384.408 160.18 375.873 161.097 375.873 161.097C375.873 161.097 378.655 154.13 380.606 152.768C381.069 152.439 381.604 152.192 382.179 152.041C382.754 151.89 383.359 151.839 383.957 151.889C384.556 151.939 385.137 152.09 385.667 152.334C386.197 152.578 386.666 152.909 387.046 153.308C387.426 153.708 387.709 154.167 387.88 154.661C388.052 155.155 388.107 155.673 388.043 156.185C387.979 156.698 387.798 157.194 387.509 157.646C387.22 158.098 386.829 158.496 386.359 158.818V158.818Z" fill="#6C63FF"/>
<path id="Vector_103" d="M386.011 174.629C384.357 176.257 376.127 178.395 376.127 178.395C376.127 178.395 377.489 171.124 379.143 169.502C379.529 169.098 380.007 168.764 380.547 168.522C381.087 168.279 381.679 168.131 382.286 168.088C382.894 168.044 383.506 168.106 384.086 168.269C384.665 168.432 385.201 168.693 385.66 169.036C386.12 169.379 386.494 169.798 386.761 170.268C387.028 170.738 387.182 171.249 387.214 171.77C387.246 172.292 387.156 172.814 386.948 173.305C386.74 173.796 386.419 174.246 386.004 174.629H386.011Z" fill="#6C63FF"/>
<path id="Vector_104" d="M364.627 147.505C366.769 148.639 375.367 148.59 375.367 148.59C375.367 148.59 371.565 141.987 369.424 140.853C368.915 140.566 368.345 140.37 367.746 140.276C367.148 140.181 366.533 140.19 365.939 140.303C365.344 140.415 364.782 140.628 364.286 140.93C363.79 141.231 363.369 141.615 363.048 142.058C362.728 142.501 362.514 142.994 362.42 143.509C362.326 144.024 362.353 144.55 362.501 145.056C362.648 145.562 362.912 146.037 363.277 146.454C363.642 146.871 364.101 147.221 364.627 147.483V147.505Z" fill="#6C63FF"/>
<path id="Vector_105" d="M364.501 166.007C366.94 166.55 375.132 164.314 375.132 164.314C375.132 164.314 369.195 158.986 366.756 158.454C365.606 158.245 364.406 158.424 363.406 158.955C362.407 159.487 361.686 160.328 361.395 161.304C361.104 162.279 361.264 163.314 361.843 164.19C362.422 165.067 363.374 165.718 364.501 166.007V166.007Z" fill="#6C63FF"/>
<path id="Vector_106" d="M367.244 184C369.538 184.879 378.059 183.87 378.059 183.87C378.059 183.87 373.257 177.76 370.963 176.881C369.86 176.459 368.606 176.429 367.477 176.798C366.348 177.168 365.437 177.906 364.944 178.851C364.451 179.795 364.416 180.869 364.847 181.836C365.279 182.802 366.141 183.583 367.244 184.005V184Z" fill="#6C63FF"/>
<path id="Vector_107" d="M377.926 236.87C376.442 236.871 374.974 236.61 373.612 236.106C372.25 235.601 371.023 234.863 370.007 233.937C368.992 233.01 368.208 231.915 367.706 230.72C367.203 229.524 366.992 228.253 367.086 226.984L370.12 185.801H385.732L388.767 226.984C388.86 228.253 388.649 229.524 388.147 230.72C387.644 231.915 386.861 233.01 385.845 233.937C384.829 234.863 383.602 235.601 382.24 236.106C380.878 236.61 379.41 236.871 377.926 236.87Z" fill="#6C63FF"/>
<path id="Vector_108" opacity="0.1" d="M61.8378 34.4115H52.9676V65.882H61.8378V34.4115Z" fill="#6C63FF"/>
<path id="Vector_109" opacity="0.1" d="M73.2422 34.4115H64.3721V65.882H73.2422V34.4115Z" fill="#6C63FF"/>
<path id="Vector_110" opacity="0.1" d="M84.6468 34.4115H75.7766V65.882H84.6468V34.4115Z" fill="#6C63FF"/>
<path id="Vector_111" opacity="0.1" d="M96.0513 34.4115H87.1811V65.882H96.0513V34.4115Z" fill="#6C63FF"/>
<path id="Vector_112" opacity="0.1" d="M118.86 34.4115H109.99V65.882H118.86V34.4115Z" fill="#6C63FF"/>
<path id="Vector_113" opacity="0.1" d="M130.265 34.4115H121.395V65.882H130.265V34.4115Z" fill="#6C63FF"/>
<path id="Vector_114" opacity="0.1" d="M61.8378 40.38H52.9676V42.0078H61.8378V40.38Z" fill="#6C63FF"/>
<path id="Vector_115" opacity="0.1" d="M61.8378 59.9135H52.9676V61.5413H61.8378V59.9135Z" fill="#6C63FF"/>
<path id="Vector_116" opacity="0.1" d="M73.2422 40.38H64.3721V42.0078H73.2422V40.38Z" fill="#6C63FF"/>
<path id="Vector_117" opacity="0.1" d="M73.2422 59.9135H64.3721V61.5413H73.2422V59.9135Z" fill="#6C63FF"/>
<path id="Vector_118" opacity="0.1" d="M84.6468 40.38H75.7766V42.0078H84.6468V40.38Z" fill="#6C63FF"/>
<path id="Vector_119" opacity="0.1" d="M84.6468 59.9135H75.7766V61.5413H84.6468V59.9135Z" fill="#6C63FF"/>
<path id="Vector_120" opacity="0.1" d="M96.0513 40.38H87.1811V42.0078H96.0513V40.38Z" fill="#6C63FF"/>
<path id="Vector_121" opacity="0.1" d="M96.0513 59.9135H87.1811V61.5413H96.0513V59.9135Z" fill="#6C63FF"/>
<path id="Vector_122" opacity="0.1" d="M107.456 40.38H98.5856V42.0078H107.456V40.38Z" fill="#6C63FF"/>
<path id="Vector_123" opacity="0.1" d="M107.456 59.9135H98.5856V61.5413H107.456V59.9135Z" fill="#6C63FF"/>
<path id="Vector_124" opacity="0.1" d="M118.86 40.38H109.99V42.0078H118.86V40.38Z" fill="#6C63FF"/>
<path id="Vector_125" opacity="0.1" d="M118.86 59.9135H109.99V61.5413H118.86V59.9135Z" fill="#6C63FF"/>
<path id="Vector_126" opacity="0.1" d="M130.265 40.38H121.395V42.0078H130.265V40.38Z" fill="#6C63FF"/>
<path id="Vector_127" opacity="0.1" d="M130.265 59.9135H121.395V61.5413H130.265V59.9135Z" fill="#6C63FF"/>
<path id="Vector_128" opacity="0.1" d="M107.456 34.4115H98.5856V65.882H107.456V34.4115Z" fill="#6C63FF"/>
<path id="Vector_129" opacity="0.1" d="M138.606 37.267L130.557 40.4582L145.994 69.0172L154.044 65.8261L138.606 37.267Z" fill="#6C63FF"/>
<path id="Vector_130" opacity="0.1" d="M141.537 39.6886L133.487 42.8798L134.285 44.357L142.335 41.1658L141.537 39.6886Z" fill="#6C63FF"/>
<path id="Vector_131" opacity="0.1" d="M151.113 57.413L143.064 60.6041L143.862 62.0813L151.912 58.8902L151.113 57.413Z" fill="#6C63FF"/>
<path id="Vector_132" d="M246.553 358.911L230.453 350.116C230.371 337.728 230.143 280.218 233.152 272.524C233.929 270.297 233.972 267.929 233.279 265.682C231.188 257.863 223.56 252.025 214.316 250.739C205.598 249.524 193.053 247.532 182.954 244.96C191.957 244.163 198.704 243.474 198.704 243.474L198.882 242.047L204.679 241.808V241.596L205.23 241.569C218.77 240.88 247.522 238.585 237.752 231.716C234.401 229.361 230.029 228.248 225.416 227.874C239.52 225.118 261.562 219.779 251.735 214.76C242.396 209.996 228.096 213.739 219.562 216.783L219.036 216.973L218.941 216.317L215.532 216.903L214.449 217.087L214.398 216.132L166.569 222.459C166.194 217.766 165.543 213.092 164.618 208.455C165.688 202.345 170.668 193.435 168.913 188.655C166.873 183.104 158.497 181.287 154.975 176.273C154.049 174.966 153.131 173.739 152.231 172.665C150.262 170.373 147.999 168.278 145.483 166.42C145.636 163.196 146.478 160.023 147.967 157.06C148.922 155.077 150.04 153.155 151.312 151.308C156.887 150.124 161.725 147.163 164.838 143.029C167.951 138.895 169.105 133.9 168.064 129.062C171.093 130.174 174.774 130.288 176.668 128.118L175.769 127.819C175.857 127.738 175.946 127.657 176.022 127.564C174.178 126.962 172.221 126.278 170.776 125.182C170.41 124.83 170.101 124.438 169.857 124.016C168.983 122.496 169.084 120.673 168.248 119.132C167.855 118.431 167.296 117.806 166.607 117.298C165.14 116.014 163.284 115.104 161.247 114.672C158.96 114.103 156.552 113.815 154.36 113.044C151.372 110.073 147.428 107.923 143.021 106.861C138.614 105.8 133.939 105.874 129.581 107.076L128.789 107.309C129.339 105.038 128.825 102.673 127.36 100.723C125.894 98.7723 123.593 97.3927 120.951 96.8806C118.31 96.3686 115.539 96.7651 113.236 97.9849C110.932 99.2046 109.28 101.15 108.634 103.403C108.835 101.425 109.808 99.5632 111.397 98.1176C111.232 98.237 111.061 98.351 110.902 98.4758C109.913 99.2724 109.117 100.228 108.559 101.288C108.001 102.348 107.692 103.492 107.65 104.655C107.608 105.817 107.834 106.975 108.315 108.063C108.796 109.15 109.522 110.146 110.453 110.993L110.636 111.145C111.368 111.912 112.244 112.568 113.228 113.088C111.417 112.54 109.82 111.571 108.616 110.29C107.412 109.009 106.648 107.465 106.41 105.833C106.41 106.018 106.41 106.202 106.41 106.376C106.489 107.542 106.837 108.683 107.433 109.734C108.029 110.784 108.862 111.723 109.884 112.497C110.906 113.27 112.096 113.863 113.387 114.241C114.677 114.619 116.042 114.775 117.403 114.699L117.688 114.672L117.536 114.851C114.59 118.563 113.193 123.017 113.572 127.493C113.952 131.969 116.085 136.204 119.627 139.512C120.047 140.337 120.607 141.105 121.287 141.791C121.526 142.025 121.782 142.247 122.054 142.453C123.789 144.021 126.162 144.957 128.681 145.068C129.103 145.499 129.553 145.913 130.03 146.311C129.613 147.833 129.066 149.328 128.396 150.782C127.045 153.679 125.365 156.454 123.378 159.067C109.692 162.399 108.489 182.301 108.983 183.056C109.572 183.956 106.943 215.21 117.08 252.964C116.662 263.756 124.011 281.602 150.102 276.898C182.732 278.39 193.433 282.671 193.433 282.671C193.433 282.671 190.335 331.271 194.757 338.347C197.526 342.78 195.562 349.291 193.49 353.887C192.722 355.023 192.11 356.232 191.665 357.489C191.032 358.634 190.569 359.329 190.569 359.329H191.013C189.34 364.304 188.155 370.311 188.155 370.311C188.155 370.311 227.71 377.186 245.108 372.688C251.862 370.94 252.141 369.323 249.949 367.989C251.563 367.785 253.16 367.486 254.726 367.093C272.137 362.595 246.553 358.911 246.553 358.911Z" fill="url(#paint1_linear)"/>
<path id="Vector_133" d="M160.487 128.194C160.487 132.057 159.149 135.834 156.643 139.046C154.136 142.258 150.574 144.762 146.406 146.24C142.239 147.719 137.652 148.106 133.228 147.352C128.803 146.598 124.739 144.738 121.549 142.006C118.359 139.274 116.187 135.794 115.307 132.005C114.427 128.215 114.879 124.288 116.605 120.719C118.331 117.149 121.255 114.099 125.006 111.952C128.757 109.806 133.167 108.66 137.678 108.66C140.673 108.66 143.639 109.166 146.406 110.147C149.174 111.129 151.688 112.568 153.806 114.382C155.924 116.195 157.604 118.349 158.75 120.719C159.897 123.089 160.487 125.629 160.487 128.194V128.194Z" fill="#FA595F"/>
<path id="Vector_134" d="M226.379 346.16L245.349 356.469C245.349 356.469 270.432 360.067 253.37 364.478C236.308 368.889 197.532 362.145 197.532 362.145C197.532 362.145 200.478 347.202 203.615 345.221C206.751 343.241 226.379 346.16 226.379 346.16Z" fill="#F37291"/>
<path id="Vector_135" d="M156.052 235.574C156.052 235.574 165.511 240.278 182.523 244.673C192.495 247.25 205.04 249.242 213.708 250.451C218.154 251.039 222.296 252.746 225.607 255.355C228.918 257.963 231.249 261.356 232.303 265.102C232.984 267.304 232.942 269.625 232.183 271.808C228.876 280.283 229.547 350.197 229.547 350.197L199.87 351.418C199.87 351.418 204.565 338.716 198.78 332.009C192.996 325.303 202.683 276.268 202.683 276.268C202.683 276.268 192.172 272.069 160.176 270.609C130.189 276.035 119.411 247.739 124.391 240.12C129.371 232.502 156.052 235.574 156.052 235.574Z" fill="#96A2D0"/>
<g id="Group_2" opacity="0.1">
<path id="Vector_136" opacity="0.1" d="M226.379 346.16L245.349 356.469C245.349 356.469 270.432 360.067 253.37 364.478C236.308 368.889 197.532 362.145 197.532 362.145C197.532 362.145 200.478 347.202 203.615 345.221C206.751 343.241 226.379 346.16 226.379 346.16Z" fill="black"/>
<path id="Vector_137" opacity="0.1" d="M156.052 235.574C156.052 235.574 165.511 240.278 182.523 244.673C192.495 247.25 205.04 249.242 213.708 250.451C218.154 251.039 222.296 252.746 225.607 255.355C228.918 257.963 231.249 261.356 232.303 265.102C232.984 267.304 232.942 269.625 232.183 271.808C228.876 280.283 229.547 350.197 229.547 350.197L199.87 351.418C199.87 351.418 204.565 338.716 198.78 332.009C192.996 325.303 202.683 276.268 202.683 276.268C202.683 276.268 192.172 272.069 160.176 270.609C130.189 276.035 119.411 247.739 124.391 240.12C129.371 232.502 156.052 235.574 156.052 235.574Z" fill="black"/>
</g>
<path id="Vector_138" d="M216.926 351.646L235.896 361.955C235.896 361.955 260.979 365.552 243.917 369.964C226.855 374.375 188.079 367.631 188.079 367.631C188.079 367.631 191.025 352.687 194.162 350.707C197.298 348.727 216.926 351.646 216.926 351.646Z" fill="#F37291"/>
<path id="Vector_139" d="M150.755 276.089C182.751 277.549 193.262 281.748 193.262 281.748C193.262 281.748 190.227 329.399 194.529 336.334C199.123 343.691 190.424 356.898 190.424 356.898L220.101 355.677C220.101 355.677 220.101 354.852 220.101 353.377C220.012 341.233 219.796 284.847 222.743 277.288C223.502 275.105 223.543 272.784 222.863 270.582C221.808 266.836 219.477 263.444 216.166 260.836C212.855 258.227 208.713 256.52 204.267 255.932C195.594 254.727 183.055 252.736 173.082 250.159L172.594 250.028C155.887 245.688 146.618 241.059 146.618 241.059C146.618 241.059 126.856 239.887 121.908 247.505C121.274 248.493 118.543 250.435 118.429 252.003C117.688 262.497 124.664 280.793 150.755 276.089Z" fill="#96A2D0"/>
<path id="Vector_140" d="M122.472 163.077C122.472 163.077 126.273 165.882 130.987 168.986C136.246 170.212 142.392 171.303 146.782 172.025C145.42 167.603 146.63 162.801 148.639 158.574C150.818 154.177 153.71 150.065 157.23 146.36L130.81 138.183C132.679 142.822 131.443 148.004 129.435 152.437C127.662 156.227 125.321 159.804 122.472 163.077V163.077Z" fill="#F8B9BF"/>
<path id="Vector_141" d="M119.006 254.933C136.113 270.164 168.014 252.063 176.592 246.702C177.986 245.829 178.766 245.291 178.766 245.291C175.598 242.53 170.529 239.974 168.584 233.056C166.728 225.995 165.47 218.829 164.82 211.612C164.295 205.888 171.201 194.987 169.205 189.551C167.209 184.114 158.991 182.329 155.538 177.407C154.632 176.127 153.733 174.922 152.846 173.869C146.472 166.273 135.365 161.156 135.365 161.156C111.701 154.238 109.844 183.18 110.434 184.081C111.023 184.982 108.317 216.887 119.006 254.933Z" fill="#6C63FF"/>
<path id="Vector_142" opacity="0.1" d="M133.749 146.642C134.63 143.386 130.582 143.283 129.314 140.131L155.747 148.27C153.778 150.337 152.003 152.534 150.438 154.841C149.03 155.141 147.591 155.323 146.142 155.383C139.718 155.655 138.001 150.212 133.749 146.642Z" fill="black"/>
<path id="Vector_143" d="M147.65 153.483C159.869 152.98 169.299 144.09 168.712 133.625C168.125 123.161 157.744 115.085 145.525 115.588C133.305 116.091 123.876 124.981 124.463 135.445C125.05 145.91 135.431 153.985 147.65 153.483Z" fill="#F8B9BF"/>
<path id="Vector_144" opacity="0.1" d="M135.143 193.381C135.143 193.381 142.151 221.808 150.425 224.711C158.7 227.614 154.949 228.232 154.949 228.232" fill="black"/>
<path id="Vector_145" opacity="0.1" d="M164.022 209.437C164.022 209.437 158.168 211.005 151.35 203.512Z" fill="black"/>
<path id="Vector_146" d="M119.937 116.799C125.536 116.799 130.075 112.912 130.075 108.118C130.075 103.323 125.536 99.4361 119.937 99.4361C114.339 99.4361 109.8 103.323 109.8 108.118C109.8 112.912 114.339 116.799 119.937 116.799Z" fill="#FA595F"/>
<path id="Vector_147" d="M112.816 112.703C111.054 111.093 110.073 108.97 110.073 106.764C110.073 104.558 111.054 102.434 112.816 100.825C112.651 100.939 112.486 101.053 112.334 101.178C110.375 102.755 109.228 104.934 109.144 107.236C109.061 109.538 110.049 111.773 111.891 113.451C113.733 115.129 116.277 116.112 118.965 116.183C121.653 116.254 124.263 115.408 126.223 113.831C126.381 113.706 126.52 113.571 126.66 113.441C124.675 114.847 122.139 115.554 119.567 115.417C116.996 115.28 114.582 114.309 112.816 112.703Z" fill="#FA595F"/>
<path id="Vector_148" d="M118.607 115.98C116.034 116.113 113.499 115.401 111.517 113.99C109.535 112.579 108.255 110.574 107.937 108.384C107.937 108.563 107.937 108.742 107.937 108.926C108.105 111.224 109.333 113.371 111.349 114.895C112.347 115.649 113.509 116.227 114.769 116.597C116.028 116.967 117.36 117.12 118.689 117.049C120.018 116.978 121.317 116.683 122.513 116.182C123.709 115.68 124.778 114.982 125.658 114.127C126.539 113.272 127.215 112.277 127.646 111.198C128.078 110.12 128.257 108.979 128.174 107.841C128.174 107.656 128.13 107.483 128.104 107.298C128.109 109.509 127.13 111.638 125.365 113.251C123.6 114.864 121.183 115.84 118.607 115.98V115.98Z" fill="#FA595F"/>
<path id="Vector_149" opacity="0.1" d="M154.753 115.665C157.116 116.664 159.821 116.94 162.356 117.57C164.89 118.199 167.475 119.349 168.59 121.4C169.408 122.909 169.313 124.694 170.168 126.186C171.397 128.357 174.235 129.355 176.846 130.207C174.603 132.784 169.788 132.084 166.645 130.332C163.503 128.579 160.797 125.991 157.141 125.313C155.338 125.008 153.468 125.188 151.789 125.828C150.109 126.468 148.701 127.537 147.758 128.888C146.757 130.391 146.402 132.144 145.908 133.815C144.641 138.221 142.106 142.605 137.671 145.106C133.236 147.608 126.628 147.592 123.15 144.168C121.122 142.171 120.444 139.453 119.842 136.859C119.5 135.65 119.336 134.408 119.354 133.164C119.557 130.049 121.977 127.396 124.423 125.085C127.306 122.372 130.372 119.767 133.439 117.179C136.087 114.944 139.141 111.156 143.133 110.89C147.733 110.576 150.983 114.086 154.753 115.665Z" fill="black"/>
<path id="Vector_150" d="M154.119 115.123C156.482 116.121 159.188 116.398 161.722 117.027C164.257 117.657 166.842 118.807 167.957 120.858C168.774 122.366 168.679 124.151 169.534 125.644C170.763 127.814 173.602 128.812 176.212 129.664C173.969 132.242 169.154 131.542 166.012 129.789C162.869 128.036 160.164 125.448 156.508 124.77C154.704 124.465 152.835 124.645 151.155 125.285C149.475 125.925 148.068 126.994 147.124 128.346C146.123 129.849 145.769 131.601 145.274 133.272C144.007 137.678 141.473 142.063 137.038 144.564C132.603 147.065 125.994 147.049 122.516 143.625C120.489 141.628 119.811 138.91 119.209 136.316C118.866 135.107 118.702 133.866 118.721 132.621C118.924 129.507 121.344 126.854 123.79 124.542C126.672 121.829 129.739 119.225 132.805 116.636C135.454 114.401 138.508 110.614 142.499 110.348C147.099 110.033 150.349 113.544 154.119 115.123Z" fill="#FA595F"/>
<path id="Vector_151" d="M156.565 235.628H95.0882C92.1139 235.628 89.7028 237.693 89.7028 240.24V240.576C89.7028 243.123 92.1139 245.188 95.0882 245.188H156.565C159.539 245.188 161.95 243.123 161.95 240.576V240.24C161.95 237.693 159.539 235.628 156.565 235.628Z" fill="#D6D6E3"/>
<path id="Vector_152" opacity="0.1" d="M89.7028 240.511V241.265C89.7028 242.309 90.1867 243.309 91.0482 244.047C91.9096 244.785 93.078 245.199 94.2962 245.199H157.357C158.575 245.199 159.743 244.785 160.605 244.047C161.466 243.309 161.95 242.309 161.95 241.265V240.511H89.7028Z" fill="black"/>
<path id="Vector_153" d="M229.357 245.595H216.933V381.152H229.357V245.595Z" fill="#D6D6E3"/>
<path id="Vector_154" opacity="0.1" d="M229.357 245.595H216.933V254.385H229.357V245.595Z" fill="black"/>
<path id="Vector_155" d="M539.452 235.877H210.99V253.457H539.452V235.877Z" fill="#D6D6E3"/>
</g>
<g id="1leftHand">
<path id="Vector_156" d="M200 232.757L200.564 242.827C200.564 242.827 203.174 242.768 207.064 242.567C220.338 241.889 248.533 239.642 238.953 232.909C230.716 227.119 216.207 228.964 207.419 230.847C204.194 231.541 201.717 232.236 200.64 232.567C200.222 232.686 200 232.757 200 232.757Z" fill="#F8B9BF"/>
<path id="Vector_157" d="M133.125 180.449C133.125 180.449 149.598 175.603 151.404 197.758C153.21 219.912 151.594 229.711 151.594 229.711L200.266 229.559L198.397 244.459C198.397 244.459 145.176 249.885 139.093 247.828C133.011 245.772 119.281 212.983 119.281 212.983C119.281 212.983 105.919 187.128 133.125 180.449Z" fill="#6C63FF"/>
</g>
</g>
<defs>
<linearGradient id="paint0_linear" x1="547.476" y1="376.554" x2="569.052" y2="96.6203" gradientUnits="userSpaceOnUse">
<stop stop-color="#808080" stop-opacity="0.25"/>
<stop offset="0.54" stop-color="#808080" stop-opacity="0.12"/>
<stop offset="1" stop-color="#808080" stop-opacity="0.1"/>
</linearGradient>
<linearGradient id="paint1_linear" x1="50976.2" y1="196709" x2="50976.2" y2="54774.4" gradientUnits="userSpaceOnUse">
<stop stop-color="#808080" stop-opacity="0.25"/>
<stop offset="0.54" stop-color="#808080" stop-opacity="0.12"/>
<stop offset="1" stop-color="#808080" stop-opacity="0.1"/>
</linearGradient>
<clipPath id="clip0">
<rect width="710" height="468" fill="white"/>
</clipPath>
</defs>
</svg>
