<svg width="763" height="448" viewBox="0 0 763 448" fill="none" xmlns="http://www.w3.org/2000/svg">
<g id="about 1" clip-path="url(#clip0)">
<g id="group">
<path id="Vector" d="M251.372 435.291H0V437.033H251.372V435.291Z" fill="#3F3D56"/>
<path id="Vector_2" d="M158.667 140.214C159.395 142.554 160.039 144.785 160.581 146.703L160.243 146.825C159.822 145.047 159.286 142.746 158.667 140.214ZM138.483 83.2427L138.381 83.3002L138.477 83.2107L138.483 83.2427Z" fill="url(#paint0_linear)"/>
<path id="Vector_3" d="M113.745 412.433C109.949 413.655 107.098 437.044 107.098 437.044L130.701 442.888C130.701 442.888 147.255 445.337 155.12 442.888C162.986 440.439 162.718 433.642 151.459 432.555C140.199 431.468 132.194 416.922 132.194 416.922C132.194 416.922 117.54 411.212 113.745 412.433Z" fill="#2F2E41"/>
<path id="Vector_4" d="M86.0462 417.191C86.1035 419.064 85.7913 420.931 85.1276 422.683C83.2254 428.416 82.4203 434.458 82.7546 440.49C82.8056 441.211 82.863 441.965 82.9268 442.754C83.7434 452.134 106.383 446.296 107.889 445.203C109.394 444.109 103.423 417.191 103.423 417.191C103.423 417.191 85.6699 413.386 86.0462 417.191Z" fill="#2F2E41"/>
<path id="Vector_5" d="M110.829 76.3812C110.835 76.3887 110.84 76.3974 110.842 76.4068C111.321 77.5832 129.099 121.28 125.884 106.989C125.789 106.564 125.725 106.133 125.693 105.698C125.419 102.188 127.071 98.3255 129.731 94.4891C131.427 92.0919 133.31 89.834 135.364 87.737C136.391 86.6692 137.456 85.627 138.534 84.6167C141.494 81.8354 144.575 79.2905 147.306 77.1677C152.211 73.3313 156.001 70.8951 156.001 70.8951C156.001 70.8951 121.617 30.715 124.054 48.0492C124.723 52.8 127.517 57.538 125.623 61.9371C124.38 64.7243 122.617 67.2482 120.43 69.3734C118.703 71.0851 116.822 72.6327 114.81 73.9962C113.949 74.5781 113.171 75.064 112.539 75.4349C111.486 76.0551 110.829 76.3812 110.829 76.3812Z" fill="#FFB9B9"/>
<path id="Vector_6" d="M228.73 128.199C228.73 128.199 230.083 127.445 232.124 126.543C238.127 123.922 250.113 120.085 251.625 130.648C253.66 144.817 240.181 143.187 240.181 143.187C237.516 142.173 234.786 141.342 232.009 140.699C230.644 140.33 229.218 140.241 227.818 140.437L228.73 128.199Z" fill="#FFB9B9"/>
<path id="Vector_7" d="M226.676 141.614H230.733C233.094 138.417 231.288 126.268 231.288 126.268L227.761 126.908L226.676 141.614Z" fill="#E6E6E6"/>
<path id="Vector_8" d="M154.17 162.126L154.846 197.881L159.312 214.742C159.312 214.742 161.506 231.06 164.198 229.698C166.89 228.336 178.373 232.211 178.373 232.211L178.915 226.162L175.049 190.611L172.064 172.868C172.064 172.868 170.367 158.929 169.078 150.77C167.79 142.611 157.009 149.076 157.009 149.076L154.17 162.126Z" fill="#2F2E41"/>
<path id="Vector_9" d="M167.075 144.389C174.405 142.33 183.865 144.389 183.865 144.389L226.606 145.335C234.235 135.239 228.947 125.757 228.947 125.757C228.947 125.757 207.985 124.932 190.997 122.387C174.009 119.842 162.82 107.195 162.82 107.195L167.075 144.389Z" fill="#2F2E41"/>
<path id="Vector_10" opacity="0.1" d="M124.054 48.0498C121.617 30.7156 156.001 70.8957 156.001 70.8957C156.001 70.8957 152.212 73.3318 147.306 77.1683C146.853 77.2003 146.4 77.2003 145.934 77.2003C135.415 77.2003 128.162 70.6016 123.99 61.65C125.668 57.6665 124.806 53.3569 124.054 48.0498Z" fill="black"/>
<path id="Vector_11" d="M121.157 53.3999C121.169 47.1565 123.652 41.173 128.062 36.7636C132.472 32.3542 138.447 29.8797 144.676 29.8834C150.905 29.8872 156.878 32.369 161.282 36.7838C165.687 41.1985 168.163 47.185 168.167 53.4284C168.171 59.6717 165.702 65.6613 161.303 70.0814C156.904 74.5015 150.934 76.9906 144.705 77.0021C138.476 77.0135 132.497 74.5462 128.082 70.1422C123.667 65.7383 121.176 59.7578 121.157 53.5144C121.157 53.4762 121.157 53.4381 121.157 53.3999Z" fill="#FFB9B9"/>
<path id="Vector_12" d="M109.566 154.651L110.842 76.3818L124.475 83.5368L135.785 86.2223L138.649 84.547L138.853 84.4256L139.319 84.157C139.319 84.157 139.472 84.4895 139.766 85.0969C142.241 90.3464 154.285 116.018 154.03 118.218C153.762 120.661 162.622 151.454 162.622 151.454L158.348 180.618C158.348 180.618 166.456 200.874 164.313 208.355C162.17 215.836 103.71 210.663 103.71 210.663L109.566 154.651Z" fill="#E6E6E6"/>
<path id="Vector_13" d="M132.398 88.6392L136.94 94.4834L137.673 96.1906C140.239 102.211 141.712 108.642 142.024 115.181V122.764L142.974 183.54L148.199 192.881L149.149 181.321L147.051 116.261L144.199 101.555L142.643 92.2391C141.807 90.612 141.08 88.9309 140.467 87.207C138.911 83.1979 134.905 84.2849 134.905 84.2849L132.398 88.6392Z" fill="#2F2E41"/>
<path id="Vector_14" d="M112.405 75.1088L112.539 75.4349L113.49 77.7751L114.561 80.3903C115.818 81.1929 116.99 82.1228 118.057 83.1653C121.68 86.4262 126.937 91.6693 129.731 94.4891C130.911 95.6784 131.651 96.4329 131.651 96.4329C133.035 95.1988 134.426 91.0747 135.364 87.737C135.517 87.2063 135.651 86.6948 135.778 86.2216C136.251 84.4121 136.538 83.1077 136.538 83.1077C132.984 81.8353 124.691 73.7085 120.43 69.3734C118.703 71.0851 116.822 72.6327 114.81 73.9962C114.568 73.3185 112.405 75.1088 112.405 75.1088Z" fill="#E6E6E6"/>
<path id="Vector_15" d="M142.075 86.0688C144.735 87.6993 149.06 89.8221 153.857 90.0651C153.857 90.0651 164.249 95.5767 166.176 114.439C168.102 133.302 176.242 189.998 176.242 189.998C176.242 189.998 183.489 228.227 178.385 232.198L172.689 185.4C172.689 185.4 162.718 158.373 161.997 153.372C161.359 148.82 153.43 123.928 152.039 119.567C151.899 119.158 151.829 118.928 151.829 118.928L143.899 96.4527L139.319 84.1506C140.194 84.8514 141.114 85.4923 142.075 86.0688Z" fill="#2F2E41"/>
<path id="Vector_16" d="M85.1276 342.962C85.1276 342.962 93.1271 287.615 90.9583 280.147C88.7894 272.679 92.451 217.486 92.451 217.486L93.6567 207.134L94.3329 201.296L94.62 198.853L96.017 199.282C109.5 203.218 123.349 205.764 137.348 206.878C140.451 207.089 143.568 206.839 146.598 206.136C152.135 204.87 162.839 203.316 164.708 201.986C164.708 201.986 165.346 203.706 166.144 206.52C167.981 213.022 170.75 225.453 168.619 236.041L165.359 257.455C165.359 257.455 164.077 279.277 159.867 292.334L156.141 310.142L151.255 346.44C148.842 356.113 147.097 365.94 146.03 375.853C144.25 392.311 134.088 419.614 134.088 419.614C134.088 419.614 112.488 422.606 111.85 415.266L119.314 358.02L126.229 276.036C126.229 276.036 118.733 327.188 114.427 338.205C114.427 338.205 108.456 401.001 106.421 410.675C104.386 420.349 103.034 422.907 103.034 422.907C103.034 422.907 90.416 427.536 84.7194 418.968C84.7194 418.968 83.0926 393.552 81.8742 384.44C80.6495 375.316 85.1276 342.962 85.1276 342.962Z" fill="#2F2E41"/>
<path id="Vector_17" d="M95.0474 219.09L103.978 223.445L93.3314 243.567C89.3316 239.826 89.8037 224.941 89.8037 224.941L95.0474 219.09Z" fill="#FFB9B9"/>
<path id="Vector_18" d="M98.888 219.091L102.958 222.287L97.5351 230.516L90.1421 233.234L89.5292 227.792L98.888 219.091Z" fill="#E6E6E6"/>
<g id="Group" opacity="0.1">
<path id="Vector_19" opacity="0.1" d="M164.715 202.063C164.694 202.035 164.68 202.002 164.676 201.967C164.562 202.043 164.442 202.111 164.319 202.172L164.715 202.063Z" fill="black"/>
</g>
<path id="Vector_20" d="M64.14 230.375C69.0201 236.085 90.2947 237.108 90.2947 237.108L106.874 210.918L111.346 203.859C111.346 203.859 116.328 200.394 125.693 184.786C135.058 169.178 134.739 157.157 134.222 148.18C133.705 139.203 127.843 113.403 127.843 113.403C127.268 110.797 126.551 108.225 125.693 105.698C123.658 99.2655 120.577 90.3266 118.057 83.1653C117.604 81.8737 117.17 80.6397 116.756 79.4888C115.99 77.302 119.882 68.9706 119.882 68.9706C118.51 71.7264 109.873 76.2597 106.868 78.1588C98.7664 83.274 87.456 85.3713 87.456 85.3713C69.2434 88.0248 72.6052 106.887 72.6052 106.887C72.6052 106.887 72.4011 180.208 73.5239 188.98C74.6466 197.753 64.14 230.375 64.14 230.375Z" fill="#2F2E41"/>
<path id="Vector_21" opacity="0.1" d="M73.3962 106.881C73.3962 106.881 65.6646 140.54 63.5276 161.339C61.3906 182.139 69.4284 195.394 69.4284 195.394L86.6204 233.637C92.5211 232.115 104.527 219.57 104.527 219.57L87.303 171.743C87.303 171.743 93.6886 147.592 97.6819 125.347C101.675 103.103 91.0922 93.1214 91.0922 93.1214C73.3899 86.3949 73.3962 106.881 73.3962 106.881Z" fill="black"/>
<path id="Vector_22" d="M72.5797 106.881C72.5797 106.881 64.8481 140.54 62.7111 161.339C60.5741 182.139 68.6119 195.394 68.6119 195.394L85.8358 233.637C91.7365 232.115 103.742 219.57 103.742 219.57L86.5184 171.743C86.5184 171.743 92.9103 147.592 96.891 125.347C100.872 103.103 90.2821 93.1214 90.2821 93.1214C72.5798 86.3949 72.5797 106.881 72.5797 106.881Z" fill="#2F2E41"/>
<path id="Vector_23" d="M106.555 225.619L101.809 239.219L96.521 246.489C96.521 246.489 92.5595 249.142 91.5707 244.181C90.5819 239.219 103.978 220.587 103.978 220.587C106.096 219.749 106.555 225.619 106.555 225.619Z" fill="#2F2E41"/>
<path id="Vector_24" d="M122.915 66.1533C122.915 66.1533 98.3558 32.4205 129.282 25.127C129.282 25.127 138.067 11.918 148.862 18.4147C154.16 21.5307 160.205 23.1419 166.347 23.0756C171.577 23.0756 176.58 25.127 175.67 33.3322C173.851 49.7428 163.846 47.0077 163.846 47.0077C163.846 47.0077 136.712 34.8225 135.802 48.498C134.893 62.1734 122.915 66.1533 122.915 66.1533Z" fill="#2F2E41"/>
<path id="Vector_25" d="M412.166 10.5956C415.086 10.5956 417.452 8.22372 417.452 5.29782C417.452 2.37191 415.086 0 412.166 0C409.247 0 406.881 2.37191 406.881 5.29782C406.881 8.22372 409.247 10.5956 412.166 10.5956Z" fill="#E6E6E6"/>
<path id="Vector_26" d="M438.922 10.5956C441.841 10.5956 444.207 8.22372 444.207 5.29782C444.207 2.37191 441.841 0 438.922 0C436.003 0 433.636 2.37191 433.636 5.29782C433.636 8.22372 436.003 10.5956 438.922 10.5956Z" fill="#E6E6E6"/>
<path id="Vector_27" d="M465.677 10.5956C468.596 10.5956 470.963 8.22372 470.963 5.29782C470.963 2.37191 468.596 0 465.677 0C462.758 0 460.392 2.37191 460.392 5.29782C460.392 8.22372 462.758 10.5956 465.677 10.5956Z" fill="#E6E6E6"/>
<path id="Vector_28" d="M492.432 10.5956C495.351 10.5956 497.718 8.22372 497.718 5.29782C497.718 2.37191 495.351 0 492.432 0C489.513 0 487.147 2.37191 487.147 5.29782C487.147 8.22372 489.513 10.5956 492.432 10.5956Z" fill="#E6E6E6"/>
<path id="Vector_29" d="M519.188 10.5956C522.107 10.5956 524.473 8.22372 524.473 5.29782C524.473 2.37191 522.107 0 519.188 0C516.269 0 513.902 2.37191 513.902 5.29782C513.902 8.22372 516.269 10.5956 519.188 10.5956Z" fill="#E6E6E6"/>
<path id="Vector_30" d="M412.166 37.7498C415.086 37.7498 417.452 35.3778 417.452 32.4519C417.452 29.526 415.086 27.1541 412.166 27.1541C409.247 27.1541 406.881 29.526 406.881 32.4519C406.881 35.3778 409.247 37.7498 412.166 37.7498Z" fill="#E6E6E6"/>
<path id="Vector_31" d="M438.922 37.7498C441.841 37.7498 444.207 35.3778 444.207 32.4519C444.207 29.526 441.841 27.1541 438.922 27.1541C436.003 27.1541 433.636 29.526 433.636 32.4519C433.636 35.3778 436.003 37.7498 438.922 37.7498Z" fill="#E6E6E6"/>
<path id="Vector_32" d="M465.677 37.7498C468.596 37.7498 470.963 35.3778 470.963 32.4519C470.963 29.526 468.596 27.1541 465.677 27.1541C462.758 27.1541 460.392 29.526 460.392 32.4519C460.392 35.3778 462.758 37.7498 465.677 37.7498Z" fill="#E6E6E6"/>
<path id="Vector_33" d="M492.432 37.7498C495.351 37.7498 497.718 35.3778 497.718 32.4519C497.718 29.526 495.351 27.1541 492.432 27.1541C489.513 27.1541 487.147 29.526 487.147 32.4519C487.147 35.3778 489.513 37.7498 492.432 37.7498Z" fill="#6C63FF"/>
<path id="Vector_34" d="M519.188 37.7498C522.107 37.7498 524.473 35.3778 524.473 32.4519C524.473 29.526 522.107 27.1541 519.188 27.1541C516.269 27.1541 513.902 29.526 513.902 32.4519C513.902 35.3778 516.269 37.7498 519.188 37.7498Z" fill="#E6E6E6"/>
<path id="Vector_35" d="M572.698 37.7498C575.618 37.7498 577.984 35.3778 577.984 32.4519C577.984 29.526 575.618 27.1541 572.698 27.1541C569.779 27.1541 567.413 29.526 567.413 32.4519C567.413 35.3778 569.779 37.7498 572.698 37.7498Z" fill="#E6E6E6"/>
<path id="Vector_36" d="M412.166 64.9038C415.086 64.9038 417.452 62.5319 417.452 59.606C417.452 56.6801 415.086 54.3082 412.166 54.3082C409.247 54.3082 406.881 56.6801 406.881 59.606C406.881 62.5319 409.247 64.9038 412.166 64.9038Z" fill="#E6E6E6"/>
<path id="Vector_37" d="M438.922 64.9038C441.841 64.9038 444.207 62.5319 444.207 59.606C444.207 56.6801 441.841 54.3082 438.922 54.3082C436.003 54.3082 433.636 56.6801 433.636 59.606C433.636 62.5319 436.003 64.9038 438.922 64.9038Z" fill="#E6E6E6"/>
<path id="Vector_38" d="M465.677 64.9038C468.596 64.9038 470.963 62.5319 470.963 59.606C470.963 56.6801 468.596 54.3082 465.677 54.3082C462.758 54.3082 460.392 56.6801 460.392 59.606C460.392 62.5319 462.758 64.9038 465.677 64.9038Z" fill="#E6E6E6"/>
<path id="Vector_39" d="M492.432 64.9038C495.351 64.9038 497.718 62.5319 497.718 59.606C497.718 56.6801 495.351 54.3082 492.432 54.3082C489.513 54.3082 487.147 56.6801 487.147 59.606C487.147 62.5319 489.513 64.9038 492.432 64.9038Z" fill="#E6E6E6"/>
<path id="Vector_40" d="M519.188 64.9038C522.107 64.9038 524.473 62.5319 524.473 59.606C524.473 56.6801 522.107 54.3082 519.188 54.3082C516.269 54.3082 513.902 56.6801 513.902 59.606C513.902 62.5319 516.269 64.9038 519.188 64.9038Z" fill="#E6E6E6"/>
<path id="Vector_41" d="M412.166 92.0579C415.086 92.0579 417.452 89.686 417.452 86.7601C417.452 83.8342 415.086 81.4623 412.166 81.4623C409.247 81.4623 406.881 83.8342 406.881 86.7601C406.881 89.686 409.247 92.0579 412.166 92.0579Z" fill="#E6E6E6"/>
<path id="Vector_42" d="M438.922 92.0579C441.841 92.0579 444.207 89.686 444.207 86.7601C444.207 83.8342 441.841 81.4623 438.922 81.4623C436.003 81.4623 433.636 83.8342 433.636 86.7601C433.636 89.686 436.003 92.0579 438.922 92.0579Z" fill="#E6E6E6"/>
<path id="Vector_43" d="M465.677 92.0579C468.596 92.0579 470.963 89.686 470.963 86.7601C470.963 83.8342 468.596 81.4623 465.677 81.4623C462.758 81.4623 460.392 83.8342 460.392 86.7601C460.392 89.686 462.758 92.0579 465.677 92.0579Z" fill="#E6E6E6"/>
<path id="Vector_44" d="M492.432 92.0579C495.351 92.0579 497.718 89.686 497.718 86.7601C497.718 83.8342 495.351 81.4623 492.432 81.4623C489.513 81.4623 487.147 83.8342 487.147 86.7601C487.147 89.686 489.513 92.0579 492.432 92.0579Z" fill="#E6E6E6"/>
<path id="Vector_45" d="M519.188 92.0579C522.107 92.0579 524.473 89.686 524.473 86.7601C524.473 83.8342 522.107 81.4623 519.188 81.4623C516.269 81.4623 513.902 83.8342 513.902 86.7601C513.902 89.686 516.269 92.0579 519.188 92.0579Z" fill="#E6E6E6"/>
<path id="Vector_46" d="M545.943 92.0579C548.862 92.0579 551.229 89.686 551.229 86.7601C551.229 83.8342 548.862 81.4623 545.943 81.4623C543.024 81.4623 540.657 83.8342 540.657 86.7601C540.657 89.686 543.024 92.0579 545.943 92.0579Z" fill="#E6E6E6"/>
<path id="Vector_47" d="M572.698 92.0579C575.618 92.0579 577.984 89.686 577.984 86.7601C577.984 83.8342 575.618 81.4623 572.698 81.4623C569.779 81.4623 567.413 83.8342 567.413 86.7601C567.413 89.686 569.779 92.0579 572.698 92.0579Z" fill="#E6E6E6"/>
<path id="Vector_48" d="M599.454 92.0579C602.373 92.0579 604.739 89.686 604.739 86.7601C604.739 83.8342 602.373 81.4623 599.454 81.4623C596.535 81.4623 594.168 83.8342 594.168 86.7601C594.168 89.686 596.535 92.0579 599.454 92.0579Z" fill="#E6E6E6"/>
<path id="Vector_49" d="M626.209 92.0579C629.128 92.0579 631.495 89.686 631.495 86.7601C631.495 83.8342 629.128 81.4623 626.209 81.4623C623.29 81.4623 620.923 83.8342 620.923 86.7601C620.923 89.686 623.29 92.0579 626.209 92.0579Z" fill="#E6E6E6"/>
<path id="Vector_50" d="M652.964 92.0579C655.883 92.0579 658.25 89.686 658.25 86.7601C658.25 83.8342 655.883 81.4623 652.964 81.4623C650.045 81.4623 647.679 83.8342 647.679 86.7601C647.679 89.686 650.045 92.0579 652.964 92.0579Z" fill="#E6E6E6"/>
<path id="Vector_51" d="M519.188 119.212C522.107 119.212 524.473 116.84 524.473 113.914C524.473 110.988 522.107 108.616 519.188 108.616C516.269 108.616 513.902 110.988 513.902 113.914C513.902 116.84 516.269 119.212 519.188 119.212Z" fill="#E6E6E6"/>
<path id="Vector_52" d="M545.943 119.212C548.862 119.212 551.229 116.84 551.229 113.914C551.229 110.988 548.862 108.616 545.943 108.616C543.024 108.616 540.657 110.988 540.657 113.914C540.657 116.84 543.024 119.212 545.943 119.212Z" fill="#6C63FF"/>
<path id="Vector_53" d="M572.698 119.212C575.618 119.212 577.984 116.84 577.984 113.914C577.984 110.988 575.618 108.616 572.698 108.616C569.779 108.616 567.413 110.988 567.413 113.914C567.413 116.84 569.779 119.212 572.698 119.212Z" fill="#E6E6E6"/>
<path id="Vector_54" d="M599.454 119.212C602.373 119.212 604.739 116.84 604.739 113.914C604.739 110.988 602.373 108.616 599.454 108.616C596.535 108.616 594.168 110.988 594.168 113.914C594.168 116.84 596.535 119.212 599.454 119.212Z" fill="#E6E6E6"/>
<path id="Vector_55" d="M626.209 119.212C629.128 119.212 631.495 116.84 631.495 113.914C631.495 110.988 629.128 108.616 626.209 108.616C623.29 108.616 620.923 110.988 620.923 113.914C620.923 116.84 623.29 119.212 626.209 119.212Z" fill="#E6E6E6"/>
<path id="Vector_56" d="M652.964 119.212C655.883 119.212 658.25 116.84 658.25 113.914C658.25 110.988 655.883 108.616 652.964 108.616C650.045 108.616 647.679 110.988 647.679 113.914C647.679 116.84 650.045 119.212 652.964 119.212Z" fill="#E6E6E6"/>
<path id="Vector_57" d="M519.188 146.366C522.107 146.366 524.473 143.994 524.473 141.068C524.473 138.142 522.107 135.771 519.188 135.771C516.269 135.771 513.902 138.142 513.902 141.068C513.902 143.994 516.269 146.366 519.188 146.366Z" fill="#E6E6E6"/>
<path id="Vector_58" d="M545.943 146.366C548.862 146.366 551.229 143.994 551.229 141.068C551.229 138.142 548.862 135.771 545.943 135.771C543.024 135.771 540.657 138.142 540.657 141.068C540.657 143.994 543.024 146.366 545.943 146.366Z" fill="#E6E6E6"/>
<path id="Vector_59" d="M572.698 146.366C575.618 146.366 577.984 143.994 577.984 141.068C577.984 138.142 575.618 135.771 572.698 135.771C569.779 135.771 567.413 138.142 567.413 141.068C567.413 143.994 569.779 146.366 572.698 146.366Z" fill="#E6E6E6"/>
<path id="Vector_60" d="M599.454 146.366C602.373 146.366 604.739 143.994 604.739 141.068C604.739 138.142 602.373 135.771 599.454 135.771C596.535 135.771 594.168 138.142 594.168 141.068C594.168 143.994 596.535 146.366 599.454 146.366Z" fill="#E6E6E6"/>
<path id="Vector_61" d="M626.209 146.366C629.128 146.366 631.495 143.994 631.495 141.068C631.495 138.142 629.128 135.771 626.209 135.771C623.29 135.771 620.923 138.142 620.923 141.068C620.923 143.994 623.29 146.366 626.209 146.366Z" fill="#6C63FF"/>
<path id="Vector_62" d="M652.964 146.366C655.883 146.366 658.25 143.994 658.25 141.068C658.25 138.142 655.883 135.771 652.964 135.771C650.045 135.771 647.679 138.142 647.679 141.068C647.679 143.994 650.045 146.366 652.964 146.366Z" fill="#E6E6E6"/>
<path id="Vector_63" d="M519.188 173.52C522.107 173.52 524.473 171.148 524.473 168.222C524.473 165.297 522.107 162.925 519.188 162.925C516.269 162.925 513.902 165.297 513.902 168.222C513.902 171.148 516.269 173.52 519.188 173.52Z" fill="#E6E6E6"/>
<path id="Vector_64" d="M545.943 173.52C548.862 173.52 551.229 171.148 551.229 168.222C551.229 165.297 548.862 162.925 545.943 162.925C543.024 162.925 540.657 165.297 540.657 168.222C540.657 171.148 543.024 173.52 545.943 173.52Z" fill="#E6E6E6"/>
<path id="Vector_65" d="M572.698 173.52C575.618 173.52 577.984 171.148 577.984 168.222C577.984 165.297 575.618 162.925 572.698 162.925C569.779 162.925 567.413 165.297 567.413 168.222C567.413 171.148 569.779 173.52 572.698 173.52Z" fill="#E6E6E6"/>
<path id="Vector_66" d="M599.454 173.52C602.373 173.52 604.739 171.148 604.739 168.222C604.739 165.297 602.373 162.925 599.454 162.925C596.535 162.925 594.168 165.297 594.168 168.222C594.168 171.148 596.535 173.52 599.454 173.52Z" fill="#E6E6E6"/>
<path id="Vector_67" d="M626.209 173.52C629.128 173.52 631.495 171.148 631.495 168.222C631.495 165.297 629.128 162.925 626.209 162.925C623.29 162.925 620.923 165.297 620.923 168.222C620.923 171.148 623.29 173.52 626.209 173.52Z" fill="#E6E6E6"/>
<path id="Vector_68" d="M652.964 173.52C655.883 173.52 658.25 171.148 658.25 168.222C658.25 165.297 655.883 162.925 652.964 162.925C650.045 162.925 647.679 165.297 647.679 168.222C647.679 171.148 650.045 173.52 652.964 173.52Z" fill="#E6E6E6"/>
<path id="Vector_69" d="M412.166 200.674C415.086 200.674 417.452 198.302 417.452 195.377C417.452 192.451 415.086 190.079 412.166 190.079C409.247 190.079 406.881 192.451 406.881 195.377C406.881 198.302 409.247 200.674 412.166 200.674Z" fill="#E6E6E6"/>
<path id="Vector_70" d="M438.922 200.674C441.841 200.674 444.207 198.302 444.207 195.377C444.207 192.451 441.841 190.079 438.922 190.079C436.003 190.079 433.636 192.451 433.636 195.377C433.636 198.302 436.003 200.674 438.922 200.674Z" fill="#E6E6E6"/>
<path id="Vector_71" d="M465.677 200.674C468.596 200.674 470.963 198.302 470.963 195.377C470.963 192.451 468.596 190.079 465.677 190.079C462.758 190.079 460.392 192.451 460.392 195.377C460.392 198.302 462.758 200.674 465.677 200.674Z" fill="#E6E6E6"/>
<path id="Vector_72" d="M492.432 200.674C495.351 200.674 497.718 198.302 497.718 195.377C497.718 192.451 495.351 190.079 492.432 190.079C489.513 190.079 487.147 192.451 487.147 195.377C487.147 198.302 489.513 200.674 492.432 200.674Z" fill="#E6E6E6"/>
<path id="Vector_73" d="M519.188 200.674C522.107 200.674 524.473 198.302 524.473 195.377C524.473 192.451 522.107 190.079 519.188 190.079C516.269 190.079 513.902 192.451 513.902 195.377C513.902 198.302 516.269 200.674 519.188 200.674Z" fill="#E6E6E6"/>
<path id="Vector_74" d="M545.943 200.674C548.862 200.674 551.229 198.302 551.229 195.377C551.229 192.451 548.862 190.079 545.943 190.079C543.024 190.079 540.657 192.451 540.657 195.377C540.657 198.302 543.024 200.674 545.943 200.674Z" fill="#E6E6E6"/>
<path id="Vector_75" d="M572.698 200.674C575.618 200.674 577.984 198.302 577.984 195.377C577.984 192.451 575.618 190.079 572.698 190.079C569.779 190.079 567.413 192.451 567.413 195.377C567.413 198.302 569.779 200.674 572.698 200.674Z" fill="#E6E6E6"/>
<path id="Vector_76" d="M599.454 200.674C602.373 200.674 604.739 198.302 604.739 195.377C604.739 192.451 602.373 190.079 599.454 190.079C596.535 190.079 594.168 192.451 594.168 195.377C594.168 198.302 596.535 200.674 599.454 200.674Z" fill="#E6E6E6"/>
<path id="Vector_77" d="M626.209 200.674C629.128 200.674 631.495 198.302 631.495 195.377C631.495 192.451 629.128 190.079 626.209 190.079C623.29 190.079 620.923 192.451 620.923 195.377C620.923 198.302 623.29 200.674 626.209 200.674Z" fill="#E6E6E6"/>
<path id="Vector_78" d="M652.964 200.674C655.883 200.674 658.25 198.302 658.25 195.377C658.25 192.451 655.883 190.079 652.964 190.079C650.045 190.079 647.679 192.451 647.679 195.377C647.679 198.302 650.045 200.674 652.964 200.674Z" fill="#E6E6E6"/>
<path id="Vector_79" d="M417.449 222.551C417.461 219.625 415.104 217.244 412.185 217.232C409.266 217.22 406.89 219.582 406.878 222.508C406.866 225.434 409.223 227.816 412.142 227.828C415.061 227.839 417.437 225.477 417.449 222.551Z" fill="#E6E6E6"/>
<path id="Vector_80" d="M438.922 227.828C441.841 227.828 444.207 225.457 444.207 222.531C444.207 219.605 441.841 217.233 438.922 217.233C436.003 217.233 433.636 219.605 433.636 222.531C433.636 225.457 436.003 227.828 438.922 227.828Z" fill="#E6E6E6"/>
<path id="Vector_81" d="M417.449 249.705C417.461 246.779 415.104 244.398 412.185 244.386C409.266 244.374 406.89 246.736 406.878 249.662C406.866 252.588 409.223 254.97 412.142 254.982C415.061 254.993 417.437 252.631 417.449 249.705Z" fill="#E6E6E6"/>
<path id="Vector_82" d="M438.922 254.983C441.841 254.983 444.207 252.611 444.207 249.685C444.207 246.759 441.841 244.387 438.922 244.387C436.003 244.387 433.636 246.759 433.636 249.685C433.636 252.611 436.003 254.983 438.922 254.983Z" fill="#E6E6E6"/>
<path id="Vector_83" d="M492.432 254.983C495.351 254.983 497.718 252.611 497.718 249.685C497.718 246.759 495.351 244.387 492.432 244.387C489.513 244.387 487.147 246.759 487.147 249.685C487.147 252.611 489.513 254.983 492.432 254.983Z" fill="#E6E6E6"/>
<path id="Vector_84" d="M759.121 62.5038H549.665C548.637 62.5025 547.651 62.0925 546.923 61.3637C546.196 60.6349 545.787 59.6467 545.786 58.6159V6.53803C545.787 5.50729 546.196 4.5191 546.923 3.79025C547.651 3.0614 548.637 2.65142 549.665 2.65021H759.121C760.15 2.65142 761.135 3.0614 761.863 3.79025C762.59 4.5191 762.999 5.50729 763 6.53803V58.6159C762.999 59.6467 762.59 60.6349 761.863 61.3637C761.135 62.0925 760.15 62.5025 759.121 62.5038V62.5038ZM549.665 4.20534C549.048 4.20601 548.456 4.452 548.02 4.88932C547.584 5.32663 547.338 5.91957 547.338 6.53803V58.6159C547.338 59.2344 547.584 59.8273 548.02 60.2646C548.456 60.702 549.048 60.9479 549.665 60.9486H759.121C759.738 60.9479 760.33 60.702 760.766 60.2646C761.202 59.8273 761.448 59.2344 761.448 58.6159V6.53803C761.448 5.91957 761.202 5.32663 760.766 4.88932C760.33 4.452 759.738 4.20601 759.121 4.20534H549.665Z" fill="#E6E6E6"/>
<path id="Vector_85" d="M614.441 21.6909C613.721 21.6909 613.03 21.9776 612.521 22.488C612.012 22.9983 611.726 23.6906 611.726 24.4123C611.726 25.1341 612.012 25.8263 612.521 26.3367C613.03 26.8471 613.721 27.1338 614.441 27.1338H686.587C687.307 27.1338 687.998 26.8471 688.507 26.3367C689.016 25.8263 689.302 25.1341 689.302 24.4123C689.302 23.6906 689.016 22.9983 688.507 22.488C687.998 21.9776 687.307 21.6909 686.587 21.6909H614.441Z" fill="#E6E6E6"/>
<path id="Vector_86" d="M614.441 38.0197C613.721 38.0197 613.03 38.3065 612.521 38.8169C612.012 39.3272 611.726 40.0194 611.726 40.7412C611.726 41.463 612.012 42.1552 612.521 42.6656C613.03 43.176 613.721 43.4627 614.441 43.4627H742.442C743.162 43.4627 743.853 43.176 744.362 42.6656C744.871 42.1552 745.157 41.463 745.157 40.7412C745.157 40.0194 744.871 39.3272 744.362 38.8169C743.853 38.3065 743.162 38.0197 742.442 38.0197H614.441Z" fill="#E6E6E6"/>
<path id="Vector_87" d="M489.932 168.253H280.475C279.447 168.251 278.461 167.841 277.734 167.113C277.007 166.384 276.598 165.396 276.596 164.365V112.287C276.598 111.256 277.007 110.268 277.734 109.539C278.461 108.81 279.447 108.4 280.475 108.399H489.932C490.96 108.4 491.946 108.81 492.673 109.539C493.4 110.268 493.809 111.256 493.81 112.287V164.365C493.809 165.396 493.4 166.384 492.673 167.113C491.946 167.841 490.96 168.251 489.932 168.253ZM280.475 109.954C279.858 109.955 279.267 110.201 278.83 110.638C278.394 111.076 278.149 111.668 278.148 112.287V164.365C278.149 164.983 278.394 165.576 278.83 166.014C279.267 166.451 279.858 166.697 280.475 166.698H489.932C490.549 166.697 491.14 166.451 491.576 166.014C492.013 165.576 492.258 164.983 492.259 164.365V112.287C492.258 111.668 492.013 111.076 491.576 110.638C491.14 110.201 490.549 109.955 489.932 109.954H280.475Z" fill="#3F3D56"/>
<path id="Vector_88" d="M345.251 143.769C344.531 143.769 343.841 144.055 343.332 144.566C342.822 145.076 342.536 145.768 342.536 146.49C342.536 147.212 342.822 147.904 343.332 148.414C343.841 148.925 344.531 149.212 345.251 149.212H473.252C473.972 149.212 474.663 148.925 475.172 148.414C475.681 147.904 475.967 147.212 475.967 146.49C475.967 145.768 475.681 145.076 475.172 144.566C474.663 144.055 473.972 143.769 473.252 143.769H345.251Z" fill="#E6E6E6"/>
<path id="Vector_89" d="M679.218 282.555H469.761C468.733 282.554 467.747 282.144 467.02 281.415C466.293 280.686 465.884 279.698 465.883 278.667V226.589C465.884 225.558 466.293 224.57 467.02 223.841C467.747 223.112 468.733 222.702 469.761 222.701H679.218C680.246 222.702 681.232 223.112 681.959 223.841C682.686 224.57 683.095 225.558 683.096 226.589V278.667C683.095 279.698 682.686 280.686 681.959 281.415C681.232 282.144 680.246 282.554 679.218 282.555ZM469.761 224.256C469.144 224.257 468.553 224.503 468.116 224.94C467.68 225.378 467.435 225.971 467.434 226.589V278.667C467.435 279.285 467.68 279.878 468.116 280.316C468.553 280.753 469.144 280.999 469.761 281H679.218C679.835 280.999 680.426 280.753 680.863 280.316C681.299 279.878 681.544 279.285 681.545 278.667V226.589C681.544 225.971 681.299 225.378 680.863 224.94C680.426 224.503 679.835 224.257 679.218 224.256H469.761Z" fill="#E6E6E6"/>
<path id="Vector_90" d="M534.537 258.071C533.817 258.071 533.127 258.358 532.618 258.868C532.108 259.378 531.822 260.07 531.822 260.792C531.822 261.514 532.108 262.206 532.618 262.717C533.127 263.227 533.817 263.514 534.537 263.514H662.538C663.258 263.514 663.949 263.227 664.458 262.717C664.967 262.206 665.253 261.514 665.253 260.792C665.253 260.07 664.967 259.378 664.458 258.868C663.949 258.358 663.258 258.071 662.538 258.071H534.537Z" fill="#E6E6E6"/>
<path id="Vector_91" d="M534.537 241.742C533.817 241.742 533.127 242.029 532.618 242.539C532.108 243.049 531.822 243.742 531.822 244.463C531.822 245.185 532.108 245.877 532.618 246.388C533.127 246.898 533.817 247.185 534.537 247.185H603.58C604.3 247.185 604.991 246.898 605.5 246.388C606.009 245.877 606.296 245.185 606.296 244.463C606.296 243.742 606.009 243.049 605.5 242.539C604.991 242.029 604.3 241.742 603.58 241.742H534.537Z" fill="#E6E6E6"/>
</g>
<g id="ball3">
<path id="Vector_92" d="M496.913 268.957C505.91 268.957 513.204 261.646 513.204 252.628C513.204 243.61 505.91 236.299 496.913 236.299C487.916 236.299 480.622 243.61 480.622 252.628C480.622 261.646 487.916 268.957 496.913 268.957Z" fill="#6C63FF"/>
</g>
<g id="ball2">
<path id="Vector_93" d="M307.627 154.655C316.624 154.655 323.918 147.344 323.918 138.326C323.918 129.308 316.624 121.997 307.627 121.997C298.63 121.997 291.336 129.308 291.336 138.326C291.336 147.344 298.63 154.655 307.627 154.655Z" fill="#6C63FF"/>
</g>
<g id="ball1">
<path id="Vector_94" d="M576.817 48.9057C585.814 48.9057 593.108 41.595 593.108 32.5768C593.108 23.5586 585.814 16.2479 576.817 16.2479C567.819 16.2479 560.526 23.5586 560.526 32.5768C560.526 41.595 567.819 48.9057 576.817 48.9057Z" fill="#6C63FF"/>
</g>
</g>
<defs>
<linearGradient id="paint0_linear" x1="149.481" y1="146.825" x2="149.481" y2="83.2107" gradientUnits="userSpaceOnUse">
<stop stop-color="#808080" stop-opacity="0.25"/>
<stop offset="0.54" stop-color="#808080" stop-opacity="0.12"/>
<stop offset="1" stop-color="#808080" stop-opacity="0.1"/>
</linearGradient>
<clipPath id="clip0">
<rect width="763" height="448" fill="white"/>
</clipPath>
</defs>
</svg>
