<svg width="575" height="485" viewBox="0 0 575 485" fill="none" xmlns="http://www.w3.org/2000/svg">
<g id="services 1" clip-path="url(#clip0)">
<path id="ball1" d="M281.693 333.199C286.089 333.199 289.653 329.788 289.653 325.58C289.653 321.372 286.089 317.961 281.693 317.961C277.297 317.961 273.733 321.372 273.733 325.58C273.733 329.788 277.297 333.199 281.693 333.199Z" fill="#6C63FF"/>
<path id="ball2" d="M306.799 361.332C311.195 361.332 314.759 357.921 314.759 353.713C314.759 349.505 311.195 346.094 306.799 346.094C302.402 346.094 298.838 349.505 298.838 353.713C298.838 357.921 302.402 361.332 306.799 361.332Z" fill="#3F3D56"/>
<path id="ball3" d="M310.473 395.912C314.869 395.912 318.433 392.501 318.433 388.293C318.433 384.085 314.869 380.674 310.473 380.674C306.076 380.674 302.512 384.085 302.512 388.293C302.512 392.501 306.076 395.912 310.473 395.912Z" fill="#6C63FF"/>
<path id="ball4" d="M283.53 420.529C287.926 420.529 291.49 417.117 291.49 412.909C291.49 408.701 287.926 405.29 283.53 405.29C279.134 405.29 275.57 408.701 275.57 412.909C275.57 417.117 279.134 420.529 283.53 420.529Z" fill="#3F3D56"/>
<path id="ball5" d="M289.653 380.088C294.05 380.088 297.614 376.676 297.614 372.468C297.614 368.26 294.05 364.849 289.653 364.849C285.257 364.849 281.693 368.26 281.693 372.468C281.693 376.676 285.257 380.088 289.653 380.088Z" fill="#6C63FF"/>
<path id="movingBall" d="M7.34798 343.659C5.89469 343.659 4.47404 343.247 3.26567 342.474C2.0573 341.701 1.11549 340.602 0.559339 339.317C0.00318724 338.032 -0.142332 336.618 0.141191 335.254C0.424715 333.889 1.12455 332.636 2.15218 331.653C3.17981 330.669 4.4891 329.999 5.91447 329.728C7.33984 329.456 8.81727 329.596 10.1599 330.128C11.5026 330.66 12.6502 331.562 13.4576 332.718C14.265 333.875 14.696 335.235 14.696 336.626C14.6937 338.491 13.9189 340.278 12.5413 341.597C11.1638 342.915 9.29611 343.657 7.34798 343.659V343.659ZM7.34798 330.765C6.13691 330.765 4.95303 331.109 3.94606 331.753C2.93908 332.397 2.15424 333.312 1.69078 334.383C1.22732 335.454 1.10606 336.632 1.34233 337.769C1.5786 338.906 2.16179 339.951 3.01815 340.77C3.87451 341.59 4.96558 342.148 6.15339 342.374C7.34119 342.6 8.57239 342.484 9.69128 342.041C10.8102 341.597 11.7665 340.846 12.4393 339.882C13.1122 338.918 13.4713 337.785 13.4713 336.626C13.4695 335.072 12.8238 333.582 11.6758 332.483C10.5279 331.385 8.97143 330.767 7.34798 330.765V330.765Z" fill="#2F2E41"/>
<path id="square2" d="M265.646 78.9105H253.558V67.3402H265.646V78.9105ZM254.488 78.0205H264.717V68.2302H254.488V78.0205Z" fill="#3F3D56"/>
<path id="square1" d="M37.0286 81.3019L28.7835 72.8408L37.6233 64.9489L45.8684 73.41L37.0286 81.3019ZM30.0978 72.8846L37.0744 80.044L44.5542 73.3662L37.5775 66.2068L30.0978 72.8846Z" fill="#2F2E41"/>
<g id="board">
<path id="Vector" d="M320.017 244.334H100.914V159.678H283.165L320.017 244.334Z" fill="#EFEFEF"/>
<path id="Vector_2" d="M321.018 244.976H74.1126V141.079H276.243L276.413 141.476L321.018 244.976ZM75.4527 243.693H319.016L275.346 142.362H75.4527V243.693Z" fill="#3F3D56"/>
<path id="Vector_3" d="M246.312 173.146H137.096V182.766H246.312V173.146Z" fill="#3F3D56"/>
<path id="Vector_4" d="M246.312 193.027H137.096V202.647H246.312V193.027Z" fill="#3F3D56"/>
<path id="Vector_5" d="M246.312 212.909H137.096V222.529H246.312V212.909Z" fill="#3F3D56"/>
</g>
<g id="girl">
<path id="Vector_6" d="M288.518 484.72C288.378 484.5 285.065 479.204 283.916 468.208C282.862 458.119 283.54 441.114 292.753 417.394C310.208 372.457 288.731 336.199 288.511 335.838L289.571 335.25C289.627 335.341 295.169 344.585 298.443 359.306C302.768 378.821 301.193 399.113 293.901 417.803C276.476 462.663 289.431 483.899 289.564 484.109L288.518 484.72Z" fill="#3F3D56"/>
<path id="Vector_7" d="M293.327 485C293.327 485 285.367 466.245 309.248 452.178L293.327 485Z" fill="#3F3D56"/>
<path id="Vector_8" d="M283.537 484.66C283.537 484.66 279.915 464.715 251.875 464.886L283.537 484.66Z" fill="#3F3D56"/>
<path id="Vector_9" d="M101.055 268.165H99.8306V415.23H101.055V268.165Z" fill="#3F3D56"/>
<path id="Vector_10" d="M138.407 245.536H137.183V437.86H138.407V245.536Z" fill="#3F3D56"/>
<path id="Vector_11" d="M175.76 239.13H174.535V444.266H175.76V239.13Z" fill="#3F3D56"/>
<path id="Vector_12" d="M213.112 245.536H211.887V437.86H213.112V245.536Z" fill="#3F3D56"/>
<path id="Vector_13" d="M250.464 268.165H249.24V415.23H250.464V268.165Z" fill="#3F3D56"/>
<path id="Vector_14" d="M269.507 292.465H80.787V293.637H269.507V292.465Z" fill="#3F3D56"/>
<path id="Vector_15" d="M282.305 341.112H67.9893V342.284H282.305V341.112Z" fill="#3F3D56"/>
<path id="Vector_16" d="M269.507 389.758H80.787V390.931H269.507V389.758Z" fill="#3F3D56"/>
<path id="Vector_17" d="M467.842 293.637C527.024 293.637 575 247.716 575 191.069C575 134.423 527.024 88.5015 467.842 88.5015C408.66 88.5015 360.684 134.423 360.684 191.069C360.684 247.716 408.66 293.637 467.842 293.637Z" fill="#6C63FF"/>
<path id="Vector_18" d="M286.592 170.872H285.367V317.937H286.592V170.872Z" fill="#3F3D56"/>
<path id="Vector_19" d="M323.944 148.243H322.719V340.567H323.944V148.243Z" fill="#3F3D56"/>
<path id="Vector_20" d="M361.296 141.837H360.072V346.973H361.296V141.837Z" fill="#3F3D56"/>
<path id="Vector_21" d="M398.649 148.243H397.424V340.567H398.649V148.243Z" fill="#3F3D56"/>
<path id="Vector_22" d="M436.001 170.872H434.776V317.937H436.001V170.872Z" fill="#3F3D56"/>
<path id="Vector_23" d="M455.044 195.172H266.324V196.344H455.044V195.172Z" fill="#3F3D56"/>
<path id="Vector_24" d="M467.842 243.819H253.526V244.991H467.842V243.819Z" fill="#3F3D56"/>
<path id="Vector_25" d="M455.044 292.465H266.324V293.637H455.044V292.465Z" fill="#3F3D56"/>
<path id="Vector_26" d="M443.511 19.3871H443.511C414.034 19.3871 390.138 44.7706 390.138 76.0827V115.865H402.921L410.321 101.125L408.471 115.865H490.634L497.361 102.465L495.679 115.865H504.93V84.6287C504.93 48.5968 477.432 19.3871 443.511 19.3871Z" fill="#2F2E41"/>
<path id="Vector_27" d="M417.748 90.889C417.748 90.889 434.407 128.095 412.195 135.536L434.407 205.696L472.167 203.57L482.163 180.183L479.942 145.103L476.61 121.717C476.61 121.717 453.287 127.032 455.508 87.6999L417.748 90.889Z" fill="#FFB8B8"/>
<path id="Vector_28" d="M408.863 134.473C408.863 134.473 372.213 131.284 375.545 156.797C378.877 182.309 382.209 187.625 382.209 187.625L385.541 225.894L365.55 237.587H346.67C346.67 237.587 288.918 250.343 317.794 264.163C346.669 277.982 356.665 253.532 356.665 253.532C356.665 253.532 409.974 253.532 413.306 245.028C416.637 236.524 408.863 134.473 408.863 134.473Z" fill="#FFB8B8"/>
<path id="Vector_29" d="M479.942 123.843C479.942 123.843 514.37 112.15 516.591 137.662C518.813 163.175 518.813 165.301 518.813 165.301L525.476 201.444C525.476 201.444 538.804 233.335 538.804 242.902C538.804 252.469 548.799 282.234 548.799 282.234C548.799 282.234 562.126 323.692 547.688 322.629C533.25 321.566 531.029 277.982 531.029 277.982L501.043 220.579L492.158 185.499L479.942 123.843Z" fill="#FFB8B8"/>
<path id="Vector_30" d="M414.416 130.221H405.531L404.421 174.868C404.421 174.868 389.983 194.003 407.753 211.011L412.195 238.65L493.269 235.461L498.822 206.759C498.822 206.759 509.928 183.373 494.379 162.112L479.942 118.528H472.167C472.167 118.528 490.173 182.074 452.177 183.372C421.08 184.436 414.416 130.221 414.416 130.221Z" fill="white"/>
<path id="Vector_31" d="M543.385 394.201C518.345 421.166 487.853 442.992 453.752 458.362C453.74 405.167 454.395 361.959 454.395 361.959C454.395 361.959 449.68 407.617 443.692 462.658C409.48 476.482 372.714 483.582 335.578 483.535C334.917 483.535 334.256 483.535 333.594 483.523C364.15 378.435 408.721 257.991 409.952 254.667C409.961 254.644 409.97 254.621 409.977 254.597L412.665 246.017L413.81 242.365L415.01 238.538L416.639 233.333L488.827 231.212L490.847 235.555L497.711 250.342C498.311 250.508 498.879 250.763 499.395 251.098C512.389 259.263 528.769 321.577 543.385 394.201Z" fill="#2F2E41"/>
<path id="Vector_32" d="M496.601 222.705L408.863 225.894C408.863 225.894 404.859 254.595 408.863 254.595C409.974 254.595 501.043 262.037 499.932 249.28C498.822 236.524 496.601 222.705 496.601 222.705Z" fill="#3F3D56"/>
<path id="Vector_33" d="M434.913 103.064C452.147 103.064 466.118 89.6915 466.118 73.1955C466.118 56.6995 452.147 43.3268 434.913 43.3268C417.679 43.3268 403.708 56.6995 403.708 73.1955C403.708 89.6915 417.679 103.064 434.913 103.064Z" fill="#FFB8B8"/>
<path id="Vector_34" d="M458.684 35.0049C453.326 28.4002 445.421 24.2168 436.598 24.2168H435.55C415.346 24.2168 398.968 41.7158 398.968 63.302V63.3021H405.738L406.831 55.3367L408.434 63.3021H448.585L451.949 56.5633L451.108 63.3021H459.007C462.693 80.8231 457.397 98.3441 443.119 115.865H456.574L463.302 102.387L461.62 115.865H487.27L492.316 84.8663C492.316 61.6511 478.223 41.9651 458.684 35.0049Z" fill="#2F2E41"/>
<path id="Vector_35" d="M466.059 38.269C477.1 38.269 486.05 29.7022 486.05 19.1345C486.05 8.56682 477.1 0 466.059 0C455.019 0 446.068 8.56682 446.068 19.1345C446.068 29.7022 455.019 38.269 466.059 38.269Z" fill="#2F2E41"/>
<path id="Vector_36" d="M320.017 253.954C325.568 253.954 330.067 249.647 330.067 244.334C330.067 239.021 325.568 234.714 320.017 234.714C314.466 234.714 309.966 239.021 309.966 244.334C309.966 249.647 314.466 253.954 320.017 253.954Z" fill="#6C63FF"/>
</g>
</g>
<defs>
<clipPath id="clip0">
<rect width="575" height="485" fill="white"/>
</clipPath>
</defs>
</svg>
